<svg width="16" height="16" viewBox="0 0 16 16" fill="none" xmlns="http://www.w3.org/2000/svg">
<g clip-path="url(#clip0_248_42216)">
<path d="M8 0C3.58267 0 0 3.582 0 8C0 11.5347 2.292 14.5333 5.47133 15.5913C5.87067 15.6653 6 15.4173 6 15.2067V13.7173C3.77467 14.2013 3.31133 12.7733 3.31133 12.7733C2.94733 11.8487 2.42267 11.6027 2.42267 11.6027C1.69667 11.106 2.478 11.1167 2.478 11.1167C3.28133 11.1727 3.704 11.9413 3.704 11.9413C4.41733 13.164 5.57533 12.8107 6.032 12.606C6.10333 12.0893 6.31067 11.736 6.54 11.5367C4.76333 11.3333 2.89533 10.6473 2.89533 7.58267C2.89533 6.70867 3.208 5.99533 3.71933 5.43533C3.63667 5.23333 3.36267 4.41933 3.79733 3.318C3.79733 3.318 4.46933 3.10333 5.998 4.138C6.636 3.96067 7.32 3.872 8 3.86867C8.68 3.872 9.36467 3.96067 10.004 4.138C11.5313 3.10333 12.202 3.318 12.202 3.318C12.6373 4.42 12.3633 5.234 12.2807 5.43533C12.794 5.99533 13.104 6.70933 13.104 7.58267C13.104 10.6553 11.2327 11.332 9.45133 11.53C9.738 11.778 10 12.2647 10 13.0113V15.2067C10 15.4193 10.128 15.6693 10.534 15.5907C13.7107 14.5313 16 11.5333 16 8C16 3.582 12.418 0 8 0Z" fill="black"/>
</g>
<defs>
<clipPath id="clip0_248_42216">
<rect width="16" height="16" fill="white"/>
</clipPath>
</defs>
</svg>
