<svg width="16" height="16" viewBox="0 0 16 16" fill="none" xmlns="http://www.w3.org/2000/svg">
<g clip-path="url(#clip0_248_42218)">
<path d="M15.7097 6.49951L15.6881 6.44208L13.5138 0.770283C13.4697 0.658915 13.3914 0.564442 13.2902 0.500538C13.2146 0.452166 13.1288 0.422169 13.0395 0.412951C12.9503 0.403734 12.8601 0.415552 12.7762 0.447459C12.6924 0.479366 12.6172 0.530474 12.5566 0.596687C12.4961 0.6629 12.4519 0.742376 12.4276 0.828744L10.9599 5.32208H5.01632L3.54863 0.828744C3.52415 0.742505 3.47985 0.663178 3.41928 0.597092C3.3587 0.531006 3.28352 0.479989 3.19974 0.448108C3.11595 0.416227 3.02587 0.404365 2.93669 0.413468C2.84751 0.422571 2.76168 0.452387 2.68607 0.500538C2.58479 0.564442 2.50649 0.658915 2.46247 0.770283L0.289141 6.4431L0.266577 6.49951C-0.0463191 7.31726 -0.0848668 8.21458 0.156745 9.05615C0.398357 9.89772 0.907031 10.6379 1.60607 11.1652L1.61427 11.1713L1.63273 11.1857L4.94042 13.6646L6.58145 14.9046L7.57837 15.6585C7.69534 15.7468 7.83794 15.7946 7.98453 15.7946C8.13112 15.7946 8.27371 15.7468 8.39068 15.6585L9.3876 14.9046L11.0286 13.6646L14.3599 11.1713L14.3691 11.1641C15.0681 10.6371 15.5769 9.89713 15.8187 9.05577C16.0605 8.2144 16.0222 7.31724 15.7097 6.49951V6.49951Z" fill="#E24329"/>
<path d="M15.7097 6.49951L15.6882 6.44208C14.6288 6.65947 13.6306 7.10848 12.7651 7.75695L7.99072 11.3672L11.0307 13.6646L14.362 11.1713L14.3712 11.1641C15.0699 10.6368 15.5782 9.89674 15.8196 9.05539C16.061 8.21404 16.0225 7.31703 15.7097 6.49951V6.49951Z" fill="#FC6D26"/>
<path d="M4.94043 13.6646L6.58146 14.9046L7.57838 15.6585C7.69535 15.7468 7.83794 15.7946 7.98453 15.7946C8.13112 15.7946 8.27372 15.7468 8.39069 15.6585L9.38761 14.9046L11.0286 13.6646L7.98863 11.3672L4.94043 13.6646Z" fill="#FCA326"/>
<path d="M3.21119 7.7569C2.34602 7.10876 1.34815 6.66009 0.289141 6.44305L0.266577 6.49946C-0.0463191 7.31721 -0.0848668 8.21453 0.156745 9.0561C0.398357 9.89767 0.907031 10.6379 1.60607 11.1651L1.61427 11.1713L1.63273 11.1856L4.94042 13.6646L7.98248 11.3672L3.21119 7.7569Z" fill="#FC6D26"/>
</g>
<defs>
<clipPath id="clip0_248_42218">
<rect width="16" height="16" fill="white"/>
</clipPath>
</defs>
</svg>
