<svg width="16" height="16" viewBox="0 0 16 16" fill="none" xmlns="http://www.w3.org/2000/svg">
<g clip-path="url(#clip0_41_11355)">
<path d="M15.8442 8.18429C15.8442 7.64047 15.8001 7.09371 15.706 6.55872H8.16016V9.63937H12.4813C12.302 10.6329 11.7258 11.5119 10.8822 12.0704V14.0693H13.4602C14.9741 12.6759 15.8442 10.6182 15.8442 8.18429Z" fill="#4285F4"/>
<path d="M10.8717 12.3767L13.0707 14.0817C11.8169 15.1378 10.1413 15.7506 8.15974 15.7506C5.24903 15.7506 2.58565 14.1209 1.26074 11.5344V9.78354H3.49458C4.20777 11.6839 6.02306 13.0847 8.16268 13.0847C9.21039 13.0847 10.1317 12.8338 10.8717 12.3767Z" fill="#34A853" stroke="#828A95" stroke-width="0.5"/>
<path d="M3.66852 9.53352C3.33341 8.53996 3.33341 7.46408 3.66852 6.47051V4.40988H1.01116C-0.123511 6.6704 -0.123511 9.33363 1.01116 11.5942L3.66852 9.53352Z" fill="#FBBC04"/>
<path d="M8.15974 3.16644C9.30029 3.1488 10.4026 3.57798 11.2286 4.36578L13.5127 2.08174C12.0664 0.72367 10.1469 -0.0229773 8.15974 0.000539111C5.13494 0.000539111 2.36882 1.70548 1.01074 4.40987L3.6681 6.4705C4.3001 4.57449 6.07266 3.16644 8.15974 3.16644Z" fill="#EA4335"/>
</g>
<defs>
<clipPath id="clip0_41_11355">
<rect width="16" height="16" fill="white"/>
</clipPath>
</defs>
</svg>
