<svg width="16" height="16" viewBox="0 0 16 16" fill="none" xmlns="http://www.w3.org/2000/svg">
<path d="M5.03168 14.5005C11.0694 14.5005 14.3718 9.49823 14.3718 5.16031C14.3718 5.01823 14.3718 4.87679 14.3622 4.73599C15.0047 4.27129 15.5593 3.69591 16 3.03679C15.4009 3.30239 14.7654 3.47649 14.1146 3.55327C14.7999 3.14306 15.3128 2.49779 15.5578 1.73759C14.9134 2.11999 14.2084 2.38947 13.4733 2.53439C12.9783 2.0081 12.3237 1.65961 11.6108 1.54284C10.8978 1.42607 10.1663 1.54753 9.52931 1.88842C8.89234 2.22931 8.38548 2.77064 8.08716 3.42862C7.78884 4.0866 7.71569 4.82456 7.87904 5.52831C6.57393 5.46284 5.29717 5.12366 4.13164 4.53279C2.9661 3.94192 1.93784 3.11256 1.1136 2.09855C0.693819 2.82121 0.565248 3.6767 0.754066 4.49083C0.942885 5.30496 1.43489 6.01652 2.12992 6.48063C1.60749 6.46532 1.09643 6.32438 0.64 6.06975V6.11135C0.640207 6.86925 0.902567 7.60374 1.38258 8.19026C1.86259 8.77677 2.53071 9.17919 3.2736 9.32927C2.79032 9.46109 2.28325 9.48036 1.79136 9.38559C2.00121 10.0378 2.40962 10.6081 2.95949 11.0169C3.50937 11.4256 4.17322 11.6523 4.85824 11.6653C4.17763 12.2002 3.39821 12.5958 2.56458 12.8293C1.73096 13.0627 0.859476 13.1296 0 13.0259C1.50122 13.9892 3.24795 14.5002 5.03168 14.4979" fill="#1DA1F2"/>
</svg>
