<svg width="61" height="10" viewBox="0 0 61 10" fill="none" xmlns="http://www.w3.org/2000/svg">
<g id="Logo" clip-path="url(#clip0_3889_24437)">
<path id="Vector" d="M0.540367 10H5.72773C6.02615 10 6.26807 9.75931 6.26807 9.46241V8.06513C6.26807 7.76823 6.02615 7.52754 5.72773 7.52754L0.540367 7.52754C0.241948 7.52754 3.19481e-05 7.76823 3.19481e-05 8.06513V9.46241C3.19481e-05 9.75931 0.241948 10 0.540367 10Z" fill="#202128"/>
<path id="Vector_2" d="M9.51044 6.23633L0.540124 6.23633C0.469166 6.23633 0.398901 6.22242 0.333344 6.19541C0.267787 6.16839 0.20822 6.12879 0.158044 6.07887C0.107868 6.02895 0.0680676 5.96968 0.0409126 5.90446C0.0137577 5.83923 -0.000217438 5.76933 -0.000217438 5.69873V4.30147C-0.000217438 4.15889 0.0567102 4.02215 0.158044 3.92133C0.259377 3.82051 0.396816 3.76387 0.540124 3.76387L9.51045 3.76387C9.65375 3.76387 9.79119 3.82051 9.89252 3.92132C9.99385 4.02214 10.0508 4.15888 10.0508 4.30146V5.69873C10.0508 5.84131 9.99385 5.97805 9.89252 6.07887C9.79119 6.17969 9.65375 6.23633 9.51044 6.23633Z" fill="#202128"/>
<path id="Vector_3" d="M4.32309 2.47266L9.51044 2.47266C9.80886 2.47266 10.0508 2.23196 10.0508 1.93506V0.537795C10.0508 0.240887 9.80886 0.000194788 9.51044 0.000194788L4.32309 0.000194788C4.02467 0.000194788 3.78275 0.240887 3.78275 0.537795V1.93506C3.78275 2.23196 4.02467 2.47266 4.32309 2.47266Z" fill="#202128"/>
<path id="Vector_4" d="M8.10605 10H9.51044C9.80886 10 10.0508 9.75931 10.0508 9.4624V8.06514C10.0508 7.76823 9.80886 7.52754 9.51044 7.52754H8.10605C7.80763 7.52754 7.56571 7.76823 7.56571 8.06514V9.4624C7.56571 9.75931 7.80763 10 8.10605 10Z" fill="#202128"/>
<path id="Vector_5" d="M1.94473 0H0.540342C0.241919 0 0 0.240692 0 0.5376V1.93486C0 2.23177 0.241919 2.47246 0.540342 2.47246H1.94473C2.24315 2.47246 2.48507 2.23177 2.48507 1.93486V0.5376C2.48507 0.240692 2.24315 0 1.94473 0Z" fill="#202128"/>
<path id="Vector_6" d="M15.0723 0.693848H18.4653C20.3356 0.693848 21.279 1.59131 21.279 2.85518C21.279 3.84731 20.6294 4.46899 19.748 4.6666V4.74893C20.7121 4.79419 21.61 5.54756 21.61 6.79502C21.61 8.13711 20.5962 9.1251 18.6929 9.1251H15.0723V0.693848ZM18.1922 4.22197C18.9246 4.22197 19.4708 3.81851 19.4708 3.15161C19.4708 2.54228 19.0197 2.13472 18.2253 2.13472H16.8639V4.22197H18.1922ZM18.3246 7.66777C19.326 7.66777 19.7604 7.25195 19.7604 6.61797C19.7604 5.92217 19.2266 5.42822 18.3659 5.42822H16.8639V7.66777H18.3246Z" fill="#202128"/>
<path id="Vector_7" d="M22.0479 7.35889C22.0479 5.94678 23.1775 5.52686 24.4354 5.41162C25.5402 5.30459 25.9747 5.25107 25.9747 4.84351V4.8188C25.9747 4.3001 25.6313 3.99956 25.0313 3.99956C24.3982 3.99956 24.0216 4.3083 23.9016 4.72823L22.2713 4.59648C22.5155 3.4438 23.5168 2.71924 25.0395 2.71924C26.4547 2.71924 27.7374 3.35323 27.7374 4.85996V9.125H26.0657V8.24814H26.016C25.7057 8.83682 25.0974 9.24443 24.1582 9.24443C22.9458 9.24443 22.0479 8.61035 22.0479 7.35889ZM25.9871 6.86484V6.19385C25.776 6.33379 25.1471 6.42432 24.7623 6.47793C24.1416 6.56435 23.732 6.80723 23.732 7.30127C23.732 7.78291 24.121 8.03408 24.663 8.03408C25.4367 8.03408 25.9871 7.52763 25.9871 6.86484Z" fill="#202128"/>
<path id="Vector_8" d="M32.2834 4.70351C32.1965 4.29595 31.8323 3.9625 31.22 3.9625C30.6738 3.9625 30.2434 4.20952 30.2475 4.58828C30.2434 4.89292 30.4628 5.09463 31.0545 5.22227L32.2047 5.45284C33.4378 5.70391 34.0379 6.25147 34.042 7.16543C34.0379 8.4128 32.8585 9.24854 31.2117 9.24854C29.5276 9.24854 28.4931 8.50332 28.3276 7.29297L30.0613 7.20244C30.1689 7.71709 30.5868 7.98467 31.2158 7.98467C31.8323 7.98467 32.242 7.71709 32.2503 7.34238C32.242 7.02539 31.9896 6.82373 31.4351 6.7125L30.3345 6.49434C29.0931 6.24736 28.4931 5.63389 28.4972 4.68706C28.4931 3.46851 29.5649 2.71924 31.191 2.71924C32.7965 2.71924 33.7399 3.43965 33.8971 4.60474L32.2834 4.70351Z" fill="#202128"/>
<path id="Vector_9" d="M34.3872 5.99209C34.3872 4.04072 35.5996 2.71924 37.4698 2.71924C39.1498 2.71924 40.4574 3.78135 40.4574 5.93037V6.41201H36.1292V6.41611C36.1292 7.35889 36.6878 7.93936 37.5692 7.93936C38.1567 7.93936 38.6119 7.68818 38.7898 7.20654L40.4202 7.31358C40.1718 8.48692 39.1125 9.24854 37.5402 9.24854C35.583 9.24853 34.3872 7.99697 34.3872 5.99209ZM38.7981 5.32519C38.7939 4.57178 38.2643 4.02837 37.4988 4.02837C37.1447 4.02108 36.8021 4.15328 36.5456 4.39619C36.2891 4.63909 36.1394 4.97301 36.1292 5.32519H38.7981Z" fill="#202128"/>
<path id="Vector_10" d="M41.2563 2.80162H42.9652V3.90494H43.0315C43.2631 3.12272 43.8424 2.71105 44.5583 2.71105C44.8636 2.70754 45.1641 2.78728 45.4272 2.94161L44.8976 4.39074C44.7123 4.29438 44.5066 4.24355 44.2976 4.24249C43.5859 4.24249 43.0231 4.7736 43.019 5.54752V9.12506H41.2563V2.80162Z" fill="#202128"/>
<path id="Vector_11" d="M45.2993 5.98799C45.2993 4.02837 46.4993 2.71924 48.4275 2.71924C50.3557 2.71924 51.5557 4.02837 51.5557 5.98799C51.5557 7.93525 50.3557 9.24854 48.4275 9.24854C46.4993 9.24854 45.2993 7.93525 45.2993 5.98799ZM49.764 5.97559C49.764 4.87231 49.3088 4.05718 48.4357 4.05718C47.5462 4.05718 47.091 4.87231 47.091 5.97559C47.091 7.07891 47.5462 7.88994 48.4357 7.88994C49.3088 7.88994 49.764 7.07891 49.764 5.97559Z" fill="#202128"/>
<path id="Vector_12" d="M51.5532 2.80176H53.3366L54.3214 7.05029H54.3793L55.4055 2.80176H57.1558L58.1986 7.02559H58.2524L59.2205 2.80176H60.9998L59.2743 9.12519H57.4082L56.3158 5.14834H56.2371L55.1448 9.12519H53.2828L51.5532 2.80176Z" fill="#202128"/>
</g>
<defs>
<clipPath id="clip0_3889_24437">
<rect width="61" height="10" fill="white"/>
</clipPath>
</defs>
</svg>
