<svg width="14" height="14" viewBox="0 0 14 14" fill="none" xmlns="http://www.w3.org/2000/svg">
<path d="M5.25 12.25H8.75M5.25 12.25V9.33333M5.25 12.25H2.35C2.01863 12.25 1.75 11.9814 1.75 11.65V9.93333C1.75 9.60196 2.01863 9.33333 2.35 9.33333H5.25M8.75 12.25V5.25M8.75 12.25H11.65C11.9814 12.25 12.25 11.9814 12.25 11.65V2.35C12.25 2.01863 11.9814 1.75 11.65 1.75H9.35C9.01863 1.75 8.75 2.01863 8.75 2.35V5.25M5.25 9.33333V5.85C5.25 5.51863 5.51863 5.25 5.85 5.25H8.75" stroke="#B5B5B7" stroke-width="1.4"/>
</svg>
