<svg width="24" height="24" viewBox="0 0 24 24" fill="none" xmlns="http://www.w3.org/2000/svg">
<path d="M3.75 10.3684V18.6579C3.75 19.6753 4.57081 20.5 5.58333 20.5H18.4167C19.4292 20.5 20.25 19.6753 20.25 18.6579V10.3684H3.75ZM14.75 4.84211H10.625Z" fill="black" fill-opacity="0.18"/>
<path d="M14.75 4.84211V3M14.75 4.84211V6.68421M14.75 4.84211H10.625M3.75 10.3684V18.6579C3.75 19.6753 4.57081 20.5 5.58333 20.5H18.4167C19.4292 20.5 20.25 19.6753 20.25 18.6579V10.3684H3.75Z" stroke="black" stroke-width="1.5" stroke-linecap="round" stroke-linejoin="round"/>
<path d="M3.75 10.3684V6.68421C3.75 5.66684 4.57081 4.84211 5.58333 4.84211H7.41667" stroke="black" stroke-width="1.5" stroke-linecap="round" stroke-linejoin="round"/>
<path d="M7.41665 3V6.68421" stroke="black" stroke-width="1.5" stroke-linecap="round" stroke-linejoin="round"/>
<path d="M20.25 10.3684V6.68421C20.25 5.66684 19.4292 4.84211 18.4167 4.84211H17.9583" stroke="black" stroke-width="1.5" stroke-linecap="round" stroke-linejoin="round"/>
</svg>
