<svg width="24" height="24" viewBox="0 0 24 24" fill="none" xmlns="http://www.w3.org/2000/svg">
<path d="M4.35008 3.74991L9.56675 3.74991C9.89812 3.74991 10.1667 4.01854 10.1667 4.34991L10.1667 19.6499C10.1667 19.9813 9.89812 20.2499 9.56675 20.2499L4.35008 20.2499C4.01871 20.2499 3.75008 19.9813 3.75008 19.6499L3.75008 4.34991C3.75008 4.01854 4.01871 3.74991 4.35008 3.74991Z" stroke="black" stroke-width="1.4"/>
<path d="M14.4336 13.8335L19.6502 13.8335C19.9816 13.8335 20.2502 14.1021 20.2502 14.4335L20.2502 19.6502C20.2502 19.9815 19.9816 20.2502 19.6502 20.2502L14.4336 20.2502C14.1022 20.2502 13.8336 19.9815 13.8336 19.6502L13.8336 14.4335C13.8336 14.1021 14.1022 13.8335 14.4336 13.8335Z" stroke="black" stroke-width="1.4"/>
<path d="M14.4336 3.74991L19.6502 3.74991C19.9816 3.74991 20.2502 4.01854 20.2502 4.34991L20.2502 9.56658C20.2502 9.89795 19.9816 10.1666 19.6502 10.1666L14.4336 10.1666C14.1022 10.1666 13.8336 9.89795 13.8336 9.56658L13.8336 4.34991C13.8336 4.01854 14.1022 3.74991 14.4336 3.74991Z" stroke="black" stroke-width="1.4"/>
</svg>
