<svg width="14" height="14" viewBox="0 0 14 14" fill="none" xmlns="http://www.w3.org/2000/svg">
<g clip-path="url(#clip0_151_31)">
<path d="M9.1416 6.9583H12.4166" stroke="#B5B5B7" stroke-width="1.4" stroke-linecap="round" stroke-linejoin="round"/>
<path d="M6.9585 1.5V4.775" stroke="#B5B5B7" stroke-width="1.4" stroke-linecap="round" stroke-linejoin="round"/>
<path d="M5.34257 8.42495L2.93872 10.6798" stroke="#B5B5B7" stroke-width="1.4" stroke-linecap="round" stroke-linejoin="round"/>
<path d="M6.95833 12.4167C9.97289 12.4167 12.4167 9.97289 12.4167 6.95833C12.4167 3.94378 9.97289 1.5 6.95833 1.5C3.94378 1.5 1.5 3.94378 1.5 6.95833C1.5 9.97289 3.94378 12.4167 6.95833 12.4167Z" stroke="#B5B5B7" stroke-width="1.4" stroke-linecap="round" stroke-linejoin="round"/>
<path d="M6.95824 9.14162C8.16406 9.14162 9.14157 8.16411 9.14157 6.95829C9.14157 5.75247 8.16406 4.77496 6.95824 4.77496C5.75241 4.77496 4.7749 5.75247 4.7749 6.95829C4.7749 8.16411 5.75241 9.14162 6.95824 9.14162Z" stroke="#B5B5B7" stroke-width="1.4" stroke-linecap="round" stroke-linejoin="round"/>
</g>
<defs>
<clipPath id="clip0_151_31">
<rect width="14" height="14" fill="white"/>
</clipPath>
</defs>
</svg>
