<svg width="24" height="24" viewBox="0 0 24 24" fill="none" xmlns="http://www.w3.org/2000/svg">
<path d="M4 6V3.6C4 3.26863 4.26863 3 4.6 3H19.4C19.7314 3 20 3.26863 20 3.6V6" stroke="black" stroke-width="1.5" stroke-linecap="round"/>
<path d="M4 18V20.4C4 20.7314 4.26863 21 4.6 21H19.4C19.7314 21 20 20.7314 20 20.4V18" stroke="black" stroke-width="1.5" stroke-linecap="round"/>
<path d="M10.25 15H12.25C13.0784 15 13.75 14.3284 13.75 13.5V13.5C13.75 12.6716 13.0784 12 12.25 12H11.75C10.9216 12 10.25 11.3284 10.25 10.5V10.5C10.25 9.67157 10.9216 9 11.75 9H13.25" stroke="black" stroke-width="1.5" stroke-linecap="round" stroke-linejoin="round"/>
<path d="M16.25 9L17.75 15L19.25 9" stroke="black" stroke-width="1.5" stroke-linecap="round" stroke-linejoin="round"/>
<path d="M7.75 9H6.75C5.64543 9 4.75 9.89543 4.75 11L4.75 13C4.75 14.1046 5.64543 15 6.75 15L7.75 15" stroke="black" stroke-width="1.5" stroke-linecap="round" stroke-linejoin="round"/>
</svg>
