<svg width="24" height="24" viewBox="0 0 24 24" fill="none" xmlns="http://www.w3.org/2000/svg">
<path d="M4.5 20V4C4.5 3.44772 4.94772 3 5.5 3H16.2188H18.5C19.0523 3 19.5 3.44772 19.5 4V6.15V20C19.5 20.5523 19.0523 21 18.5 21H5.5C4.94772 21 4.5 20.5523 4.5 20Z" stroke="black" stroke-width="1.5" stroke-linecap="round" stroke-linejoin="round"/>
<path d="M13 14.5V8.6C13 8.26863 13.2686 8 13.6 8H15M13 14.5C13 15.3284 12.3284 16 11.5 16C10.6716 16 10 15.3284 10 14.5C10 13.6716 10.6716 13 11.5 13C12.3284 13 13 13.6716 13 14.5Z" stroke="black" stroke-width="1.5" stroke-linecap="round"/>
</svg>
