<svg width="24" height="24" viewBox="0 0 24 24" fill="none" xmlns="http://www.w3.org/2000/svg">
<path d="M4.5 20V4C4.5 3.44772 4.94772 3 5.5 3H16.2188H18.5C19.0523 3 19.5 3.44772 19.5 4V6.15V20C19.5 20.5523 19.0523 21 18.5 21H5.5C4.94772 21 4.5 20.5523 4.5 20Z" stroke="black" stroke-width="1.5" stroke-linecap="round" stroke-linejoin="round"/>
<path d="M5 13.8L10.4444 12L19 15" stroke="black" stroke-width="1.5" stroke-linecap="round" stroke-linejoin="round"/>
<path d="M14.5 10C13.6716 10 13 9.32843 13 8.5C13 7.67157 13.6716 7 14.5 7C15.3284 7 16 7.67157 16 8.5C16 9.32843 15.3284 10 14.5 10Z" stroke="black" stroke-width="1.5" stroke-linecap="round" stroke-linejoin="round"/>
</svg>
