<svg width="24" height="24" viewBox="0 0 24 24" fill="none" xmlns="http://www.w3.org/2000/svg">
<path d="M4 6V3.6C4 3.26863 4.26863 3 4.6 3H19.4C19.7314 3 20 3.26863 20 3.6V6" stroke="black" stroke-width="1.5" stroke-linecap="round"/>
<path d="M4 18V20.4C4 20.7314 4.26863 21 4.6 21H19.4C19.7314 21 20 20.7314 20 20.4V18" stroke="black" stroke-width="1.5" stroke-linecap="round"/>
<path d="M4.75 15V12M4.75 12V9H7.75L7.75 12H4.75Z" stroke="black" stroke-width="1.5" stroke-linecap="round" stroke-linejoin="round"/>
<path d="M10.75 15V12M10.75 12V9H13.75L13.75 12H10.75Z" stroke="black" stroke-width="1.5" stroke-linecap="round" stroke-linejoin="round"/>
<path d="M16.25 9H17.75M19.25 9H17.75M17.75 9V15" stroke="black" stroke-width="1.5" stroke-linecap="round" stroke-linejoin="round"/>
</svg>
