<svg width="24" height="24" viewBox="0 0 24 24" fill="none" xmlns="http://www.w3.org/2000/svg">
<path d="M4.5 20V4C4.5 3.44772 4.94772 3 5.5 3H16.2188H18.5C19.0523 3 19.5 3.44772 19.5 4V6.15V20C19.5 20.5523 19.0523 21 18.5 21H5.5C4.94772 21 4.5 20.5523 4.5 20Z" stroke="black" stroke-width="1.5" stroke-linecap="round" stroke-linejoin="round"/>
<path d="M10 7L10.01 6" stroke="black" stroke-width="1.5" stroke-linecap="round" stroke-linejoin="round"/>
<path d="M10 11L10.01 10" stroke="black" stroke-width="1.5" stroke-linecap="round" stroke-linejoin="round"/>
<path d="M11.5 14.6V16.4C11.5 16.7314 11.2314 17 10.9 17H9.1C8.76863 17 8.5 16.7314 8.5 16.4V14.6C8.5 14.2686 8.76863 14 9.1 14H10.9C11.2314 14 11.5 14.2686 11.5 14.6Z" stroke="black" stroke-width="1.5" stroke-linecap="round" stroke-linejoin="round"/>
</svg>
