<svg width="24" height="24" viewBox="0 0 24 24" fill="none" xmlns="http://www.w3.org/2000/svg">
<path d="M5.81451 2.62505C5.68736 2.26402 5.17056 2.26402 5.03931 2.62505L2.72189 9.71591H8.13602C8.13192 9.71591 5.81451 2.62505 5.81451 2.62505ZM1.53653 13.2857C1.42988 13.6102 1.54883 13.9712 1.82774 14.1781L11.9956 21.6422L2.71779 9.71591L1.53653 13.2857ZM8.13192 9.71591L11.9997 21.6422L15.8676 9.71591H8.13192ZM22.463 13.2857L21.2817 9.71591L11.9997 21.6422L22.1676 14.1781C22.4507 13.9712 22.5655 13.6102 22.463 13.2857ZM18.9602 2.62505C18.833 2.26402 18.3162 2.26402 18.185 2.62505L15.8635 9.71591H21.2776L18.9602 2.62505Z" fill="black"/>
</svg>
