<svg width="24" height="24" viewBox="0 0 24 24" fill="none" xmlns="http://www.w3.org/2000/svg">
<path d="M12 10.35C13.8075 10.35 15.2727 8.87254 15.2727 7.05C15.2727 5.22746 13.8075 3.75 12 3.75C10.1925 3.75 8.72729 5.22746 8.72729 7.05C8.72729 8.87254 10.1925 10.35 12 10.35Z" stroke="black" stroke-width="1.4" stroke-linecap="round" stroke-linejoin="round"/>
<path d="M6.27273 20.25C8.0802 20.25 9.54545 18.7725 9.54545 16.95C9.54545 15.1275 8.0802 13.65 6.27273 13.65C4.46525 13.65 3 15.1275 3 16.95C3 18.7725 4.46525 20.25 6.27273 20.25Z" stroke="black" stroke-width="1.4" stroke-linecap="round" stroke-linejoin="round"/>
<path d="M17.7273 20.25C19.5348 20.25 21 18.7725 21 16.95C21 15.1275 19.5348 13.65 17.7273 13.65C15.9198 13.65 14.4546 15.1275 14.4546 16.95C14.4546 18.7725 15.9198 20.25 17.7273 20.25Z" stroke="black" stroke-width="1.4" stroke-linecap="round" stroke-linejoin="round"/>
</svg>
