<svg width="24" height="24" viewBox="0 0 24 24" fill="none" xmlns="http://www.w3.org/2000/svg">
<path d="M16.5761 9.94739V7.81274C16.8555 7.68054 17.0922 7.47098 17.2585 7.20838C17.4248 6.94578 17.5141 6.64091 17.5158 6.32913V6.27888C17.5147 5.84313 17.3429 5.42555 17.038 5.11736C16.7331 4.80916 16.32 4.6354 15.8887 4.63401H15.839C15.4077 4.6352 14.9945 4.80877 14.6895 5.11683C14.3845 5.42488 14.2125 5.84238 14.2111 6.27813V6.32838C14.2125 6.63843 14.3004 6.94179 14.4648 7.20358C14.6292 7.46537 14.8634 7.67496 15.1405 7.80824L15.1501 7.81274V9.95189C14.3424 10.0766 13.5819 10.4157 12.9463 10.9345L12.9552 10.9277L7.14447 6.35538C7.25498 5.93654 7.2183 5.49194 7.04066 5.09737C6.86303 4.70281 6.55545 4.38272 6.17037 4.19169C5.78529 4.00066 5.34655 3.95051 4.92897 4.04979C4.51139 4.14908 4.14082 4.39165 3.88044 4.73615C3.62007 5.08065 3.48602 5.50574 3.50115 5.93894C3.51628 6.37214 3.67966 6.78663 3.96341 7.11172C4.24717 7.43682 4.63374 7.65239 5.05722 7.72168C5.48069 7.79098 5.91483 7.7097 6.28563 7.49171L6.27672 7.49621L11.9894 11.9898C11.4844 12.755 11.2161 13.6547 11.2189 14.5745C11.2189 15.5818 11.5344 16.5156 12.0703 17.2792L12.0607 17.2649L10.3222 19.0215C10.1831 18.9761 10.0379 18.9521 9.89171 18.9503H9.89022C9.59175 18.9503 9.29999 19.0397 9.05182 19.2073C8.80365 19.3748 8.61022 19.613 8.49601 19.8916C8.38179 20.1702 8.3519 20.4768 8.41013 20.7726C8.46836 21.0684 8.61208 21.3401 8.82313 21.5534C9.03418 21.7666 9.30308 21.9119 9.59581 21.9707C9.88855 22.0295 10.192 21.9993 10.4677 21.8839C10.7435 21.7685 10.9792 21.5731 11.145 21.3223C11.3108 21.0715 11.3993 20.7767 11.3993 20.4751C11.3975 20.3235 11.3728 20.1729 11.3258 20.0289L11.3288 20.0394L13.0487 18.3015C13.6092 18.734 14.26 19.0316 14.9515 19.1716C15.643 19.3117 16.357 19.2905 17.0392 19.1097C17.7214 18.9289 18.3538 18.5933 18.8883 18.1284C19.4228 17.6634 19.8452 17.0814 20.1236 16.4267C20.4019 15.7719 20.5288 15.0616 20.4945 14.3498C20.4603 13.638 20.2658 12.9435 19.9259 12.3191C19.5859 11.6947 19.1096 11.1569 18.5329 10.7465C17.9563 10.3362 17.2947 10.0642 16.5984 9.95114L16.5716 9.94739H16.5761ZM15.8605 16.9806C15.3901 16.9795 14.9306 16.8374 14.54 16.5725C14.1494 16.3075 13.8453 15.9315 13.6661 15.492C13.4869 15.0525 13.4406 14.5692 13.5331 14.1032C13.6256 13.6371 13.8527 13.2092 14.1858 12.8735C14.5188 12.5378 14.9429 12.3094 15.4044 12.2171C15.8658 12.1248 16.344 12.1727 16.7785 12.3549C17.213 12.5371 17.5844 12.8453 17.8456 13.2406C18.1068 13.6359 18.2463 14.1006 18.2463 14.576V14.5775C18.2463 15.2152 17.9955 15.8269 17.5492 16.2778C17.1029 16.7288 16.4976 16.9821 15.8665 16.9821L15.8605 16.9806Z" fill="black"/>
</svg>
