<svg width="24" height="24" viewBox="0 0 24 24" fill="none" xmlns="http://www.w3.org/2000/svg">
<path d="M11.577 4C11.5817 5.03686 11.9957 6.02991 12.7289 6.76309C13.4621 7.49627 14.4551 7.91027 15.492 7.915H17.094V9.445C17.094 10.4818 17.5052 11.4762 18.2375 12.2101C18.9698 12.9441 19.9632 13.3576 21 13.36V4.756C20.9977 4.55622 20.9173 4.36529 20.776 4.22401C20.6347 4.08274 20.4438 4.00234 20.244 4H11.577ZM7.293 8.32C7.29773 9.35448 7.71078 10.3452 8.44227 11.0767C9.17376 11.8082 10.1645 12.2213 11.199 12.226H12.819V13.774C12.8237 14.8085 13.2368 15.7992 13.9683 16.5307C14.6998 17.2622 15.6905 17.6753 16.725 17.68V9.067C16.7227 8.86961 16.6432 8.68096 16.5036 8.54137C16.364 8.40179 16.1754 8.32234 15.978 8.32H7.293ZM3 12.64C3 13.1537 3.10133 13.6624 3.29819 14.1368C3.49504 14.6113 3.78356 15.0423 4.14722 15.4051C4.51088 15.768 4.94254 16.0555 5.41747 16.2513C5.89241 16.447 6.4013 16.5472 6.915 16.546H8.517V18.094C8.52173 19.1285 8.93478 20.1192 9.66627 20.8507C10.3978 21.5822 11.3885 21.9953 12.423 22V13.387C12.4207 13.1872 12.3403 12.9963 12.199 12.855C12.0577 12.7137 11.8668 12.6333 11.667 12.631H3V12.64Z" fill="black"/>
</svg>
