<svg width="24" height="24" viewBox="0 0 24 24" fill="none" xmlns="http://www.w3.org/2000/svg">
<path d="M3.6 3L9.4 3C9.73137 3 10 3.26863 10 3.6L10 20.4C10 20.7314 9.73137 21 9.4 21L3.6 21C3.26863 21 3 20.7314 3 20.4L3 3.6C3 3.26863 3.26863 3 3.6 3Z" fill="black" fill-opacity="0.18" stroke="black" stroke-width="1.5"/>
<path d="M14.6 3L20.4 3C20.7314 3 21 3.26863 21 3.6L21 15.4C21 15.7314 20.7314 16 20.4 16L14.6 16C14.2686 16 14 15.7314 14 15.4L14 3.6C14 3.26863 14.2686 3 14.6 3Z" fill="black" fill-opacity="0.18" stroke="black" stroke-width="1.5"/>
</svg>
