<svg width="24" height="24" viewBox="0 0 24 24" fill="none" xmlns="http://www.w3.org/2000/svg">
<path d="M7.02911 19.5H3.29732V7.48262H7.02911V19.5ZM5.16121 5.84334C3.9679 5.84334 3 4.85495 3 3.66165C3 3.08847 3.2277 2.53876 3.633 2.13346C4.03831 1.72815 4.58802 1.50046 5.16121 1.50046C5.73439 1.50046 6.2841 1.72815 6.68941 2.13346C7.09471 2.53876 7.32241 3.08847 7.32241 3.66165C7.32241 4.85495 6.35411 5.84334 5.16121 5.84334ZM20.996 19.5H17.2722V13.65C17.2722 12.2558 17.2441 10.4679 15.332 10.4679C13.3918 10.4679 13.0945 11.9826 13.0945 13.5496V19.5H9.3667V7.48262H12.9458V9.1219H12.998C13.4962 8.17771 14.7133 7.18128 16.5289 7.18128C20.3057 7.18128 21 9.66833 21 12.8987V19.5H20.996Z" fill="black"/>
</svg>
