<svg width="14" height="14" viewBox="0 0 14 14" fill="none" xmlns="http://www.w3.org/2000/svg">
<path fill-rule="evenodd" clip-rule="evenodd" d="M8.09229 4.27069C8.09229 3.99455 8.31712 3.76766 8.59145 3.79921C10.743 4.04667 12.4138 5.87433 12.4138 8.09222C12.4138 10.4789 10.479 12.4137 8.09229 12.4137C5.8744 12.4137 4.04675 10.743 3.79929 8.59138C3.76774 8.31705 3.99463 8.09222 4.27077 8.09222H7.59229C7.86844 8.09222 8.09229 7.86836 8.09229 7.59222V4.27069Z" stroke="#B5B5B7" stroke-width="1.4" stroke-linecap="round" stroke-linejoin="round"/>
<path fill-rule="evenodd" clip-rule="evenodd" d="M5.82153 5.32153C5.82153 5.59767 5.59768 5.82153 5.32153 5.82153H2.00001C1.72387 5.82153 1.49697 5.5967 1.52853 5.32237C1.75715 3.33456 3.33456 1.75714 5.32238 1.52852C5.59671 1.49696 5.82153 1.72386 5.82153 2V5.32153Z" stroke="#B5B5B7" stroke-width="1.4" stroke-linecap="round" stroke-linejoin="round"/>
</svg>
