<svg width="24" height="24" viewBox="0 0 24 24" fill="none" xmlns="http://www.w3.org/2000/svg">
<g clip-path="url(#clip0_124_2)">
<path d="M16.2733 3C15.4962 3.00578 14.7236 3.11879 13.9775 3.33583L13.925 3.3525C13.4543 3.26932 12.9778 3.22335 12.5 3.215C11.5183 3.19833 10.675 3.43667 9.99497 3.83333C9.32497 3.60083 7.93497 3.2 6.46997 3.28C5.44997 3.33583 4.33663 3.64583 3.51163 4.51667C2.68913 5.3875 2.25413 6.735 2.3458 8.56833C2.3708 9.07417 2.51497 9.89917 2.75413 10.9675C2.9933 12.0358 3.32913 13.2867 3.7483 14.4275C4.16747 15.5692 4.62663 16.5942 5.34413 17.2908C5.70247 17.64 6.1958 17.9333 6.77747 17.9092C7.1858 17.8925 7.55497 17.7133 7.8733 17.4492C8.0283 17.6533 8.19413 17.7425 8.34497 17.825C8.53497 17.9292 8.71997 18 8.91163 18.0467C9.2558 18.1325 9.84497 18.2475 10.535 18.13C10.77 18.0908 11.0175 18.0142 11.2641 17.905C11.2733 18.18 11.2841 18.4492 11.295 18.7217C11.3291 19.585 11.3508 20.3825 11.61 21.0817C11.6516 21.1958 11.7658 21.7842 12.2158 22.3033C12.6658 22.8233 13.5475 23.1475 14.5516 22.9325C15.26 22.7808 16.1608 22.5075 16.7591 21.6558C17.3508 20.8142 17.6175 19.6067 17.67 17.6483C17.6833 17.5425 17.6991 17.4525 17.7158 17.3683L17.8566 17.3808H17.8733C18.6291 17.415 19.4491 17.3075 20.1341 16.9892C20.7408 16.7083 21.2 16.4242 21.5341 15.92C21.6175 15.795 21.7091 15.6442 21.7341 15.3842C21.7591 15.1242 21.61 14.7175 21.3625 14.53C20.8666 14.1533 20.555 14.2967 20.2208 14.3658C19.8916 14.4386 19.5562 14.4794 19.2191 14.4875C20.1825 12.865 20.8733 11.1417 21.2675 9.61667C21.5008 8.71667 21.6316 7.88667 21.6425 7.16083C21.6533 6.435 21.5941 5.7925 21.1591 5.23667C19.8 3.5 17.8891 3.02 16.4108 3.00333C16.365 3.0025 16.3191 3.00167 16.2733 3.0025V3ZM16.2341 3.53333C17.6325 3.52 19.4191 3.9125 20.7016 5.55167C20.99 5.92 21.0758 6.45833 21.0658 7.12167C21.055 7.78417 20.9325 8.5775 20.7083 9.44667C20.2733 11.13 19.4516 13.0925 18.2941 14.8533C18.335 14.8824 18.3792 14.9064 18.4258 14.925C18.6675 15.025 19.2183 15.1108 20.3175 14.885C20.5941 14.8267 20.7966 14.7875 21.0066 14.9475C21.0577 14.9908 21.098 15.0452 21.1244 15.1067C21.1509 15.1681 21.1628 15.2349 21.1591 15.3017C21.1479 15.4028 21.1106 15.4993 21.0508 15.5817C20.8383 15.9008 20.4191 16.2033 19.8816 16.4525C19.4058 16.6742 18.7233 16.79 18.1183 16.7967C17.815 16.8 17.535 16.7767 17.2975 16.7025L17.2825 16.6967C17.1908 17.58 16.98 19.3242 16.8425 20.12C16.7325 20.7617 16.54 21.2717 16.1725 21.6533C15.8058 22.035 15.2866 22.265 14.5883 22.415C13.7233 22.6008 13.0925 22.4008 12.6858 22.0583C12.28 21.7167 12.0941 21.2633 11.9825 20.9858C11.9058 20.7942 11.8658 20.5458 11.8275 20.2142C11.7891 19.8825 11.7608 19.4767 11.7416 19.0192C11.7161 18.3186 11.7078 17.6176 11.7166 16.9167C11.3553 17.2476 10.9063 17.4675 10.4233 17.55C9.84913 17.6475 9.33663 17.5517 9.0308 17.475C8.88004 17.4371 8.7345 17.3809 8.59747 17.3075C8.4558 17.2317 8.3208 17.1458 8.2308 16.9767C8.17792 16.8798 8.16109 16.7673 8.1833 16.6592C8.21146 16.5496 8.2754 16.4525 8.36497 16.3833C8.52997 16.2492 8.7483 16.1742 9.07747 16.1058C9.67663 15.9825 9.8858 15.8983 10.0133 15.7975C10.1216 15.7108 10.2441 15.5358 10.4608 15.2792C10.4598 15.2678 10.4589 15.2564 10.4583 15.245C10.0705 15.2341 9.69081 15.1319 9.34997 14.9467C9.22497 15.0783 8.58663 15.7533 7.8083 16.69C7.4808 17.0817 7.11913 17.3067 6.73747 17.3225C6.3558 17.3392 6.0108 17.1467 5.71747 16.8625C5.13163 16.2933 4.66413 15.3142 4.25663 14.2075C3.84997 13.1008 3.51913 11.8683 3.28413 10.8183C3.0483 9.76833 2.90913 8.92167 2.88913 8.51333C2.80163 6.77833 3.20747 5.60917 3.9033 4.87167C4.59997 4.13417 5.55497 3.855 6.4858 3.80167C8.15663 3.70583 9.7433 4.28833 10.0641 4.41333C10.6825 3.99333 11.4791 3.73167 12.4741 3.74833C12.9465 3.75496 13.4165 3.81592 13.875 3.93L13.8916 3.9225C14.0934 3.85157 14.299 3.79203 14.5075 3.74417C15.0735 3.61213 15.6521 3.542 16.2333 3.535L16.2341 3.53333ZM16.3608 4.09167H16.2391C15.7617 4.09833 15.2861 4.15192 14.8191 4.25167C15.8575 4.71167 16.6416 5.42 17.1941 6.12667C17.5779 6.61595 17.8951 7.15398 18.1375 7.72667C18.2291 7.94667 18.2908 8.1325 18.3258 8.27667C18.3433 8.34917 18.355 8.41 18.3591 8.47333C18.3608 8.505 18.3625 8.5375 18.3491 8.59333C18.3491 8.59583 18.345 8.60167 18.3441 8.60417C18.3691 9.33417 18.1883 9.82917 18.1666 10.5258C18.15 11.0308 18.2791 11.6242 18.3108 12.2717C18.3408 12.88 18.2675 13.5483 17.8725 14.2042C17.9058 14.2442 17.9358 14.2842 17.9675 14.3242C19.0125 12.6783 19.7658 10.8575 20.1675 9.305C20.3825 8.46917 20.4966 7.71167 20.5066 7.11167C20.515 6.51167 20.4033 6.07667 20.2608 5.895C19.1425 4.465 17.6291 4.10167 16.3608 4.09167ZM12.3691 4.305C11.3841 4.3075 10.6775 4.605 10.1416 5.05083C9.58913 5.51167 9.2183 6.1425 8.97497 6.78833C8.6858 7.555 8.58663 8.29667 8.54747 8.8L8.5583 8.79333C8.8558 8.62667 9.24663 8.46 9.66497 8.36333C10.0833 8.2675 10.5341 8.2375 10.9425 8.39583C11.3508 8.55417 11.6883 8.92667 11.8108 9.49167C12.3975 12.2058 11.6283 13.215 11.345 13.9767C11.2375 14.2527 11.1454 14.5346 11.0691 14.8208C11.105 14.8125 11.1408 14.8025 11.1766 14.7992C11.3766 14.7825 11.5333 14.8492 11.6266 14.8892C11.9116 15.0075 12.1075 15.2558 12.2133 15.5392C12.2408 15.6133 12.2608 15.6933 12.2725 15.7758C12.2848 15.8097 12.2904 15.8456 12.2891 15.8817C12.2575 16.9198 12.2612 17.9588 12.3 18.9967C12.3191 19.445 12.3475 19.84 12.3833 20.1517C12.4191 20.4625 12.47 20.6992 12.5025 20.7792C12.6091 21.0458 12.765 21.395 13.0466 21.6325C13.3283 21.8692 13.7325 22.0275 14.4708 21.8692C15.1108 21.7317 15.5058 21.5408 15.77 21.2667C16.0333 20.9925 16.1908 20.6108 16.2916 20.0267C16.4425 19.1517 16.7458 16.6142 16.7825 16.1367C16.7658 15.7767 16.8191 15.5 16.9341 15.2892C17.0525 15.0725 17.2358 14.94 17.3941 14.8683C17.4733 14.8325 17.5475 14.8083 17.6083 14.7908C17.5439 14.6983 17.4764 14.608 17.4058 14.52C17.1775 14.2431 16.9906 13.9347 16.8508 13.6042C16.7839 13.4677 16.7124 13.3334 16.6366 13.2017C16.5258 13.0017 16.3858 12.7517 16.2391 12.4708C15.9458 11.9083 15.6266 11.2267 15.4608 10.5625C15.2958 9.89917 15.2716 9.2125 15.695 8.72833C16.07 8.29833 16.7283 8.12 17.7166 8.22C17.6875 8.1325 17.67 8.06 17.6208 7.94333C17.3974 7.41741 17.1057 6.92316 16.7533 6.47333C15.9158 5.4025 14.56 4.34083 12.465 4.30667H12.3691V4.305ZM6.83413 4.34833C6.7283 4.34833 6.62247 4.35167 6.51747 4.3575C5.6758 4.40583 4.87997 4.65 4.3108 5.25333C3.7408 5.85667 3.3658 6.84583 3.44747 8.48333C3.4633 8.79333 3.5983 9.66167 3.82997 10.6933C4.0608 11.725 4.3883 12.9392 4.78163 14.0117C5.1758 15.0842 5.6533 16.0175 6.10663 16.4592C6.33497 16.68 6.5333 16.7692 6.7133 16.7617C6.89413 16.7533 7.11163 16.6492 7.37747 16.33C7.86214 15.7454 8.36516 15.1762 8.8858 14.6233C8.51639 14.3026 8.23367 13.894 8.06372 13.4353C7.89376 12.9765 7.84203 12.4823 7.9133 11.9983C7.99913 11.3825 8.0108 10.8067 8.0008 10.3517C7.9908 9.90833 7.95913 9.61333 7.95913 9.42917C7.95898 9.42389 7.95898 9.41861 7.95913 9.41333V9.40917L7.9583 9.40417C7.9578 8.44483 8.12475 7.49193 8.45163 6.59C8.68497 5.97 9.03247 5.34 9.5533 4.83C9.04163 4.66167 8.1333 4.405 7.14997 4.35667C7.0445 4.35125 6.93974 4.34847 6.83413 4.34833ZM17.1658 8.75C16.6 8.7575 16.2825 8.90333 16.1158 9.09417C15.88 9.365 15.8575 9.84 16.0041 10.425C16.15 11.0108 16.4516 11.6658 16.735 12.21C16.8766 12.4825 17.0141 12.7275 17.125 12.9267C17.2366 13.1267 17.3183 13.2683 17.3683 13.3892C17.4141 13.5008 17.465 13.5992 17.5166 13.6908C17.7358 13.2283 17.775 12.7742 17.7525 12.3008C17.7233 11.715 17.5875 11.1158 17.6075 10.5092C17.63 9.8 17.77 9.33833 17.7825 8.79C17.578 8.76351 17.372 8.75015 17.1658 8.75ZM10.3041 8.84583C10.1313 8.84745 9.95912 8.86813 9.7908 8.9075C9.45533 8.98901 9.13221 9.11483 8.82997 9.28167C8.72773 9.33651 8.63042 9.40007 8.53913 9.47167L8.5208 9.48833C8.5258 9.61 8.54997 9.905 8.55997 10.3392C8.56997 10.8142 8.5583 11.42 8.46663 12.0758C8.26747 13.5008 9.30163 14.6808 10.5166 14.6825C10.5875 14.39 10.7041 14.0933 10.8208 13.7808C11.1591 12.8692 11.825 12.2042 11.2641 9.60917C11.1725 9.18417 10.9908 9.0125 10.7408 8.91583C10.6007 8.86627 10.4527 8.84256 10.3041 8.84583ZM16.9016 9.01583H16.9433C16.9983 9.0175 17.0491 9.02333 17.0933 9.03417C17.1383 9.04417 17.1766 9.05917 17.2083 9.08C17.2245 9.09006 17.2385 9.10342 17.2493 9.11921C17.26 9.13499 17.2674 9.15287 17.2708 9.17167L17.27 9.17833C17.2716 9.21789 17.2614 9.25705 17.2408 9.29083C17.2162 9.33657 17.1854 9.37864 17.1491 9.41583C17.0646 9.50892 16.9514 9.5711 16.8275 9.5925C16.7069 9.60707 16.5852 9.5765 16.4858 9.50667C16.4451 9.4793 16.4086 9.44618 16.3775 9.40833C16.3505 9.3786 16.3323 9.34196 16.325 9.3025C16.3232 9.28327 16.3254 9.26389 16.3315 9.24555C16.3375 9.22721 16.3472 9.21029 16.36 9.19583C16.3873 9.16476 16.4204 9.13929 16.4575 9.12083C16.5375 9.07583 16.6458 9.0425 16.7683 9.02417C16.8141 9.0175 16.8591 9.01417 16.9016 9.01333V9.01583ZM10.385 9.15583C10.4291 9.15583 10.4758 9.16 10.5233 9.16667C10.6508 9.18417 10.7641 9.21833 10.8508 9.26833C10.8931 9.2904 10.9307 9.32038 10.9616 9.35667C10.9785 9.37591 10.9912 9.39843 10.9989 9.4228C11.0067 9.44718 11.0093 9.47289 11.0066 9.49833C10.9986 9.54625 10.9769 9.59082 10.9441 9.62667C10.91 9.66852 10.8699 9.70504 10.825 9.735C10.7166 9.81178 10.5835 9.84536 10.4516 9.82917C10.3169 9.80702 10.1936 9.74008 10.1016 9.63917C10.0625 9.59853 10.0294 9.55251 10.0033 9.5025C9.97583 9.4585 9.96381 9.4066 9.96913 9.355C9.98163 9.265 10.0558 9.21833 10.1283 9.1925C10.2109 9.16611 10.2975 9.15482 10.3841 9.15917L10.385 9.15583ZM17.935 15.275L17.9325 15.2758C17.81 15.32 17.7091 15.3383 17.6241 15.3758C17.5382 15.4089 17.4673 15.4724 17.425 15.5542C17.3725 15.65 17.3275 15.82 17.3408 16.1092C17.3785 16.1351 17.4201 16.1548 17.4641 16.1675C17.6066 16.2108 17.8458 16.2392 18.1125 16.235C18.6441 16.2292 19.2983 16.105 19.6458 15.9433C19.9309 15.8109 20.1955 15.6383 20.4316 15.4308C19.2708 15.6708 18.6141 15.6067 18.2116 15.4408C18.1117 15.3992 18.0185 15.3439 17.935 15.275ZM11.2425 15.3533H11.225C11.1808 15.3575 11.1166 15.3725 10.9925 15.51C10.7025 15.835 10.6008 16.0392 10.3616 16.23C10.1225 16.42 9.81163 16.5217 9.1908 16.6492C8.99413 16.6892 8.88163 16.7333 8.80663 16.7692C8.8308 16.7892 8.8283 16.7942 8.86497 16.8133C8.9558 16.8633 9.07247 16.9075 9.16663 16.9317C9.4333 16.9983 9.87163 17.0758 10.3291 16.9983C10.7866 16.92 11.2625 16.7008 11.6683 16.1317C11.7383 16.0333 11.7458 15.8883 11.6883 15.7325C11.63 15.5767 11.5025 15.4425 11.4125 15.405C11.3589 15.3792 11.3015 15.3623 11.2425 15.355V15.3533Z" fill="black"/>
</g>
<defs>
<clipPath id="clip0_124_2">
<rect width="20" height="20" fill="white" transform="translate(2 3)"/>
</clipPath>
</defs>
</svg>
