<svg width="24" height="24" viewBox="0 0 24 24" fill="none" xmlns="http://www.w3.org/2000/svg">
<path d="M19.4735 9.89023C18.8652 9.89023 18.3299 10.1393 17.9365 10.5291C16.4888 9.53665 14.5383 8.89778 12.3769 8.82948L13.5002 3.815L17.0768 4.61057C17.0768 5.47846 17.7906 6.18563 18.6665 6.18563C19.5586 6.18563 20.2764 5.45837 20.2764 4.59048C20.2764 3.72259 19.5627 2.99533 18.6665 2.99533C18.042 2.99533 17.5026 3.36901 17.235 3.87929L13.2852 3.0114C13.0865 2.95917 12.8919 3.0998 12.8392 3.29668L11.6064 8.82546C9.46119 8.91386 7.53092 9.55272 6.07916 10.5452C5.6858 10.1393 5.13024 9.89023 4.52196 9.89023C2.26727 9.89023 1.52923 12.8877 3.59332 13.9123C3.52033 14.2297 3.48789 14.5672 3.48789 14.9047C3.48789 18.2718 7.31599 21 12.016 21C16.7362 21 20.5643 18.2718 20.5643 14.9047C20.5643 14.5672 20.5278 14.2136 20.4386 13.8962C22.4621 12.8676 21.716 9.89023 19.4735 9.89023ZM6.86586 14.1252C6.86586 13.2412 7.57958 12.5301 8.47578 12.5301C9.3517 12.5301 10.0654 13.2372 10.0654 14.1252C10.0654 14.9931 9.3517 15.7003 8.47578 15.7003C7.58363 15.7043 6.86586 14.9931 6.86586 14.1252ZM15.5561 17.882C14.0801 19.3446 9.91537 19.3446 8.43928 17.882C8.27707 17.7414 8.27707 17.4923 8.43928 17.3316C8.58121 17.1909 8.83263 17.1909 8.97456 17.3316C10.1019 18.4767 13.8408 18.4968 15.0168 17.3316C15.1587 17.1909 15.4102 17.1909 15.5521 17.3316C15.7184 17.4923 15.7184 17.7414 15.5561 17.882ZM15.5237 15.7043C14.6478 15.7043 13.9341 14.9971 13.9341 14.1292C13.9341 13.2453 14.6478 12.5341 15.5237 12.5341C16.4158 12.5341 17.1336 13.2412 17.1336 14.1292C17.1296 14.9931 16.4158 15.7043 15.5237 15.7043Z" fill="black"/>
</svg>
