<svg width="24" height="24" viewBox="0 0 24 24" fill="none" xmlns="http://www.w3.org/2000/svg">
<path d="M3.5625 3V5.11538C3.5625 5.69923 4.0665 6.17307 4.6875 6.17307H19.3125C19.9335 6.17307 20.4375 5.69923 20.4375 5.11538V3" stroke="black" stroke-width="1.4" stroke-linecap="round" stroke-linejoin="round"/>
<path d="M3.5625 20.9999V18.8845C3.5625 18.3006 4.0665 17.8268 4.6875 17.8268H19.3125C19.9335 17.8268 20.4375 18.3006 20.4375 18.8845V20.9999" stroke="black" stroke-width="1.4" stroke-linecap="round" stroke-linejoin="round"/>
<path d="M4.125 12.8655C4.74632 12.8655 5.25 12.392 5.25 11.8078C5.25 11.2237 4.74632 10.7501 4.125 10.7501C3.50368 10.7501 3 11.2237 3 11.8078C3 12.392 3.50368 12.8655 4.125 12.8655Z" fill="black"/>
<path d="M14.625 12.8655C15.2463 12.8655 15.75 12.392 15.75 11.8078C15.75 11.2237 15.2463 10.7501 14.625 10.7501C14.0037 10.7501 13.5 11.2237 13.5 11.8078C13.5 12.392 14.0037 12.8655 14.625 12.8655Z" fill="black"/>
<path d="M9.375 12.8655C9.99632 12.8655 10.5 12.392 10.5 11.8078C10.5 11.2237 9.99632 10.7501 9.375 10.7501C8.75368 10.7501 8.25 11.2237 8.25 11.8078C8.25 12.392 8.75368 12.8655 9.375 12.8655Z" fill="black"/>
<path d="M19.875 12.8655C20.4963 12.8655 21 12.392 21 11.8078C21 11.2237 20.4963 10.7501 19.875 10.7501C19.2537 10.7501 18.75 11.2237 18.75 11.8078C18.75 12.392 19.2537 12.8655 19.875 12.8655Z" fill="black"/>
</svg>
