<svg width="24" height="24" viewBox="0 0 24 24" fill="none" xmlns="http://www.w3.org/2000/svg">
<path d="M17.7854 15.75V21.75" stroke="black" stroke-width="1.5" stroke-linecap="round" stroke-linejoin="round"/>
<path d="M17.7856 2.25V4.85" stroke="black" stroke-width="1.5" stroke-linecap="round" stroke-linejoin="round"/>
<path d="M6.21436 8.25V2.25" stroke="black" stroke-width="1.5" stroke-linecap="round" stroke-linejoin="round"/>
<path d="M6.21436 21.7499V19.1499" stroke="black" stroke-width="1.5" stroke-linecap="round" stroke-linejoin="round"/>
<path d="M17.7858 11.3501C19.561 11.3501 21.0001 9.89502 21.0001 8.1001C21.0001 6.30517 19.561 4.8501 17.7858 4.8501C16.0106 4.8501 14.5715 6.30517 14.5715 8.1001C14.5715 9.89502 16.0106 11.3501 17.7858 11.3501Z" stroke="black" stroke-width="1.5" stroke-linecap="round" stroke-linejoin="round"/>
<path d="M6.21429 19.15C7.98949 19.15 9.42857 17.6949 9.42857 15.9C9.42857 14.1051 7.98949 12.65 6.21429 12.65C4.43908 12.65 3 14.1051 3 15.9C3 17.6949 4.43908 19.15 6.21429 19.15Z" stroke="black" stroke-width="1.5" stroke-linecap="round" stroke-linejoin="round"/>
</svg>
