<svg width="24" height="24" viewBox="0 0 24 24" fill="none" xmlns="http://www.w3.org/2000/svg">
<path d="M13.2777 10.7266C11.6912 9.14012 8.62049 9.01983 6.82125 10.8191C6.60813 11.0322 5.90562 11.7347 5.72977 11.9106C3.92135 13.719 3.87994 16.6096 5.6373 18.367C7.15163 19.8813 9.50747 20.06 11.2872 18.9233C11.5728 18.7409 11.8436 18.5246 12.0937 18.2745" stroke="black" stroke-width="1.5" stroke-linecap="round" stroke-linejoin="round"/>
<path d="M10.7309 13.2734C12.3173 14.8599 15.3881 14.9802 17.1873 13.1809C17.4004 12.9678 18.1029 12.2653 18.2788 12.0894C20.0872 10.281 20.1286 7.39038 18.3712 5.63303C16.8569 4.1187 14.5011 3.94002 12.7213 5.07669C12.4357 5.25911 12.1649 5.47541 11.9148 5.7255" stroke="black" stroke-width="1.5" stroke-linecap="round" stroke-linejoin="round"/>
</svg>
