<svg width="24" height="24" viewBox="0 0 24 24" fill="none" xmlns="http://www.w3.org/2000/svg">
<path fill-rule="evenodd" clip-rule="evenodd" d="M2.00012 12.0001C2.00012 17.5229 6.47727 22.0001 12.0001 22.0001C17.523 22.0001 22.0001 17.5229 22.0001 12.0001C22.0001 6.47721 17.523 2.00006 12.0001 2.00006C6.47727 2.00006 2.00012 6.47721 2.00012 12.0001ZM17.1 13.6999C16.6601 13.37 16.0368 13.4573 15.7043 13.8942L15.7016 13.8977C15.6966 13.9039 15.6862 13.9167 15.6704 13.9351C15.6388 13.972 15.5858 14.0312 15.5116 14.1053C15.3628 14.2542 15.1319 14.4601 14.8203 14.6679C14.2009 15.0808 13.2657 15.4999 12 15.4999C10.7343 15.4999 9.79907 15.0808 9.1797 14.6679C8.86809 14.4601 8.63721 14.2542 8.48835 14.1053C8.41417 14.0312 8.3612 13.972 8.32957 13.9351C8.31378 13.9167 8.3034 13.9039 8.29844 13.8977L8.29566 13.8942L8.29565 13.8942C7.96317 13.4573 7.3399 13.37 6.9 13.6999C6.45817 14.0313 6.36863 14.6581 6.7 15.0999L7.5 14.4999C6.7 15.0999 6.70029 15.1003 6.70058 15.1007L6.7012 15.1015L6.70254 15.1033L6.70566 15.1074L6.71367 15.1178C6.71978 15.1257 6.72746 15.1355 6.73671 15.1471C6.75519 15.1702 6.77997 15.2004 6.81105 15.2367C6.87317 15.3091 6.96082 15.4062 7.07414 15.5195C7.30028 15.7457 7.63191 16.0397 8.0703 16.332C8.95093 16.9191 10.2657 17.4999 12 17.4999C13.7343 17.4999 15.0491 16.9191 15.9297 16.332C16.3681 16.0397 16.6997 15.7457 16.9259 15.5195C17.0392 15.4062 17.1268 15.3091 17.1889 15.2367C17.22 15.2004 17.2448 15.1702 17.2633 15.1471L17.2747 15.1327L17.2863 15.1178L17.2943 15.1074L17.2975 15.1033L17.2988 15.1015L17.2994 15.1007C17.2997 15.1003 17.3 15.0999 16.5 14.4999L17.3 15.0999C17.6314 14.6581 17.5418 14.0313 17.1 13.6999ZM8.99988 11.0001C8.17145 11.0001 7.49988 10.3285 7.49988 9.50006C7.49988 8.67163 8.17145 8.00006 8.99988 8.00006C9.82831 8.00006 10.4999 8.67163 10.4999 9.50006C10.4999 10.3285 9.82831 11.0001 8.99988 11.0001ZM13.4999 9.50006C13.4999 10.3285 14.1715 11.0001 14.9999 11.0001C15.8283 11.0001 16.4999 10.3285 16.4999 9.50006C16.4999 8.67163 15.8283 8.00006 14.9999 8.00006C14.1715 8.00006 13.4999 8.67163 13.4999 9.50006Z" fill="black"/>
</svg>
