<svg width="24" height="24" viewBox="0 0 24 24" fill="none" xmlns="http://www.w3.org/2000/svg">
<path fill-rule="evenodd" clip-rule="evenodd" d="M7.51702 21.7774H17.2862C18.1874 21.7774 18.9773 21.1747 19.2152 20.3055L21.3918 12.3547C21.7402 11.082 20.7823 9.82668 19.4627 9.82668H14.1671C13.7649 9.82668 13.4766 9.43877 13.5926 9.05368L14.7257 5.29063C14.8946 4.7297 14.7764 4.12157 14.4096 3.6648C13.6355 2.70077 12.1381 2.80162 11.5002 3.86074L8.49035 8.8585C8.26134 9.23875 7.91687 9.5255 7.51702 9.68478V21.7774ZM6.11702 21.7774V9.82668H3.6C3.26863 9.82668 3 10.0953 3 10.4267V21.1774C3 21.5088 3.26863 21.7774 3.6 21.7774H6.11702Z" fill="black"/>
</svg>
