<svg xmlns="http://www.w3.org/2000/svg" xmlns:xlink="http://www.w3.org/1999/xlink" width="176" height="29" viewBox="0 0 176 29">
  <defs>
    <clipPath id="clip-logo_white">
      <rect width="176" height="29"/>
    </clipPath>
  </defs>
  <g id="logo_white" data-name="logo white" clip-path="url(#clip-logo_white)">
    <g id="Group_10" data-name="Group 10" transform="translate(189.1 -226.9)">
      <path id="Path_50" data-name="Path 50" d="M1.55,0H16.432a1.55,1.55,0,0,1,1.55,1.55V5.579a1.55,1.55,0,0,1-1.55,1.55H1.55A1.55,1.55,0,0,1,0,5.579V1.55A1.55,1.55,0,0,1,1.55,0Z" transform="translate(-171.018 255.835) rotate(180)" fill="#4d68c4"/>
      <path id="Path_40" data-name="Path 40" d="M1.55,0H27.285a1.55,1.55,0,0,1,1.55,1.55V5.579a1.55,1.55,0,0,1-1.55,1.55H1.55A1.55,1.55,0,0,1,0,5.579V1.55A1.55,1.55,0,0,1,1.55,0Z" transform="translate(-160.165 244.982) rotate(180)" fill="#5190ef"/>
      <path id="Path_49" data-name="Path 49" d="M1.55,0H16.432a1.55,1.55,0,0,1,1.55,1.55V5.579a1.55,1.55,0,0,1-1.55,1.55H1.55A1.55,1.55,0,0,1,0,5.579V1.55A1.55,1.55,0,0,1,1.55,0Z" transform="translate(-160.165 234.129) rotate(180)" fill="#2bc3f1"/>
      <path id="Path_51" data-name="Path 51" d="M1.55,0H5.579a1.55,1.55,0,0,1,1.55,1.55V5.579a1.55,1.55,0,0,1-1.55,1.55H1.55A1.55,1.55,0,0,1,0,5.579V1.55A1.55,1.55,0,0,1,1.55,0Z" transform="translate(-160.165 255.835) rotate(180)" fill="#4d68c4"/>
      <path id="Path_48" data-name="Path 48" d="M1.55,0H5.579a1.55,1.55,0,0,1,1.55,1.55V5.579a1.55,1.55,0,0,1-1.55,1.55H1.55A1.55,1.55,0,0,1,0,5.579V1.55A1.55,1.55,0,0,1,1.55,0Z" transform="translate(-189 227)" fill="#2bc3f1"/>
      <path id="Path_41" data-name="Path 41" d="M197.666,9.238H207.4c5.366,0,8.072,2.588,8.072,6.232a5.192,5.192,0,0,1-4.392,5.223v.237a5.629,5.629,0,0,1,5.342,5.9c0,3.87-2.909,6.719-8.369,6.719H197.666Zm8.951,10.173c2.1,0,3.668-1.163,3.668-3.086,0-1.757-1.294-2.932-3.573-2.932h-3.906v6.019Zm.38,9.936c2.873,0,4.119-1.2,4.119-3.027,0-2.006-1.531-3.431-4-3.431h-4.309v6.458Z" transform="translate(-343.427 219.763)" fill="#fff"/>
      <path id="Path_42" data-name="Path 42" d="M289.155,49.315c0-4.072,3.241-5.283,6.849-5.615,3.17-.309,4.416-.463,4.416-1.638v-.071c0-1.5-.985-2.362-2.707-2.362a3.051,3.051,0,0,0-3.241,2.1l-4.677-.38c.7-3.324,3.573-5.413,7.941-5.413,4.06,0,7.74,1.828,7.74,6.173v12.3h-4.8V51.88h-.143a5.6,5.6,0,0,1-5.33,2.873C291.731,54.752,289.155,52.924,289.155,49.315Zm11.3-1.425V45.956a12.173,12.173,0,0,1-3.514.819c-1.781.249-2.956.95-2.956,2.374,0,1.389,1.116,2.113,2.671,2.113a3.5,3.5,0,0,0,3.8-3.371Z" transform="translate(-414.902 198.904)" fill="#fff"/>
      <path id="Path_43" data-name="Path 43" d="M382.858,41.659a2.849,2.849,0,0,0-3.051-2.137c-1.567,0-2.8.712-2.79,1.8-.012.878.618,1.46,2.315,1.828l3.3.665c3.538.724,5.259,2.3,5.271,4.938-.012,3.6-3.4,6.007-8.12,6.007-4.832,0-7.8-2.149-8.274-5.639l4.974-.261c.309,1.484,1.508,2.256,3.312,2.256,1.769,0,2.944-.772,2.968-1.852-.024-.914-.748-1.5-2.339-1.816l-3.157-.629c-3.561-.712-5.283-2.481-5.271-5.211-.012-3.514,3.063-5.674,7.728-5.674,4.606,0,7.312,2.077,7.763,5.437Z" transform="translate(-479.242 198.904)" fill="#fff"/>
      <path id="Path_44" data-name="Path 44" d="M450.98,45.374c0-5.627,3.478-9.437,8.844-9.437,4.82,0,8.571,3.063,8.571,9.259v1.389H455.978V46.6c0,2.718,1.6,4.392,4.131,4.392a3.434,3.434,0,0,0,3.5-2.113l4.677.309c-.712,3.383-3.751,5.579-8.262,5.579C454.411,54.764,450.98,51.155,450.98,45.374Zm12.654-1.923a3.594,3.594,0,0,0-3.727-3.739,3.851,3.851,0,0,0-3.929,3.739Z" transform="translate(-541.328 198.904)" fill="#fff"/>
      <path id="Path_45" data-name="Path 45" d="M541.066,36.088h4.9V39.27h.19a4.42,4.42,0,0,1,4.38-3.443,4.8,4.8,0,0,1,2.493.665l-1.519,4.179a3.756,3.756,0,0,0-1.721-.427,3.62,3.62,0,0,0-3.668,3.763V54.322h-5.057Z" transform="translate(-611.708 198.99)" fill="#fff"/>
      <path id="Path_46" data-name="Path 46" d="M594.088,45.362c0-5.651,3.443-9.425,8.974-9.425s8.974,3.775,8.974,9.425c0,5.615-3.443,9.4-8.974,9.4S594.088,50.977,594.088,45.362Zm12.808-.036c0-3.181-1.306-5.532-3.81-5.532-2.552,0-3.858,2.35-3.858,5.532s1.306,5.52,3.858,5.52C605.591,50.847,606.9,48.508,606.9,45.327Z" transform="translate(-653.132 198.904)" fill="#fff"/>
      <path id="Path_47" data-name="Path 47" d="M676.111,37.022h5.116l2.825,12.251h.166l2.944-12.251h5.021L695.175,49.2h.154l2.778-12.179h5.1l-4.95,18.234h-5.354l-3.134-11.467h-.226l-3.134,11.467h-5.342Z" transform="translate(-717.211 198.056)" fill="#fff"/>
    </g>
  </g>
</svg>
