<svg xmlns="http://www.w3.org/2000/svg" xmlns:xlink="http://www.w3.org/1999/xlink" width="176" height="29" viewBox="0 0 176 29">
  <defs>
    <clipPath id="clip-logo">
      <rect width="176" height="29"/>
    </clipPath>
  </defs>
  <g id="logo" clip-path="url(#clip-logo)">
    <g id="Group_1" data-name="Group 1" transform="translate(0.016 0.1)">
      <path id="Path_29" data-name="Path 29" d="M1.559,0H16.526a1.559,1.559,0,0,1,1.559,1.559V5.611A1.559,1.559,0,0,1,16.526,7.17H1.559A1.559,1.559,0,0,1,0,5.611V1.559A1.559,1.559,0,0,1,1.559,0Z" transform="translate(18.169 28.835) rotate(180)" fill="#4d68c4"/>
      <path id="Path_10" data-name="Path 10" d="M1.559,0H27.441A1.559,1.559,0,0,1,29,1.559V5.611A1.559,1.559,0,0,1,27.441,7.17H1.559A1.559,1.559,0,0,1,0,5.611V1.559A1.559,1.559,0,0,1,1.559,0Z" transform="translate(29.084 18.002) rotate(180)" fill="#5190ef"/>
      <path id="Path_27" data-name="Path 27" d="M1.559,0H16.526a1.559,1.559,0,0,1,1.559,1.559V5.611A1.559,1.559,0,0,1,16.526,7.17H1.559A1.559,1.559,0,0,1,0,5.611V1.559A1.559,1.559,0,0,1,1.559,0Z" transform="translate(29.084 7.17) rotate(180)" fill="#2bc3f1"/>
      <path id="Path_28" data-name="Path 28" d="M1.559,0H5.611A1.559,1.559,0,0,1,7.17,1.559V5.611A1.559,1.559,0,0,1,5.611,7.17H1.559A1.559,1.559,0,0,1,0,5.611V1.559A1.559,1.559,0,0,1,1.559,0Z" transform="translate(29.084 28.835) rotate(180)" fill="#4d68c4"/>
      <path id="Path_30" data-name="Path 30" d="M1.559,0H5.611A1.559,1.559,0,0,1,7.17,1.559V5.611A1.559,1.559,0,0,1,5.611,7.17H1.559A1.559,1.559,0,0,1,0,5.611V1.559A1.559,1.559,0,0,1,1.559,0Z" transform="translate(0.084 0)" fill="#2bc3f1"/>
      <path id="Path_11" data-name="Path 11" d="M197.666,9.238h9.79c5.4,0,8.118,2.585,8.118,6.226a5.2,5.2,0,0,1-4.417,5.218v.237a5.639,5.639,0,0,1,5.372,5.894c0,3.866-2.925,6.712-8.417,6.712H197.666Zm9,10.162c2.113,0,3.689-1.162,3.689-3.083,0-1.755-1.3-2.929-3.594-2.929h-3.928V19.4Zm.382,9.925c2.889,0,4.143-1.2,4.143-3.024,0-2-1.54-3.427-4.023-3.427h-4.334v6.451Z" transform="translate(-154.373 -7.226)" fill="#202128"/>
      <path id="Path_12" data-name="Path 12" d="M289.155,49.392c0-4.1,3.259-5.313,6.889-5.647,3.188-.31,4.441-.466,4.441-1.648v-.072c0-1.5-.991-2.376-2.722-2.376a3.069,3.069,0,0,0-3.259,2.113l-4.7-.382c.7-3.343,3.594-5.444,7.987-5.444,4.083,0,7.784,1.839,7.784,6.208V54.514h-4.823V51.971H300.6a5.631,5.631,0,0,1-5.36,2.889C291.746,54.86,289.155,53.021,289.155,49.392Zm11.366-1.433V46.013a12.242,12.242,0,0,1-3.534.824c-1.791.251-2.973.955-2.973,2.388,0,1.4,1.122,2.125,2.686,2.125a3.52,3.52,0,0,0,3.82-3.391Z" transform="translate(-225.856 -28.216)" fill="#202128"/>
      <path id="Path_13" data-name="Path 13" d="M382.923,41.692a2.865,2.865,0,0,0-3.068-2.149c-1.576,0-2.818.716-2.806,1.815-.012.883.621,1.468,2.328,1.839l3.319.669c3.558.728,5.289,2.316,5.3,4.967-.012,3.617-3.415,6.041-8.166,6.041-4.859,0-7.844-2.161-8.321-5.671l5-.263c.31,1.492,1.516,2.268,3.331,2.268,1.779,0,2.961-.776,2.985-1.863-.024-.919-.752-1.5-2.352-1.827l-3.176-.633c-3.582-.716-5.313-2.5-5.3-5.241-.012-3.534,3.08-5.707,7.772-5.707,4.632,0,7.354,2.089,7.808,5.468Z" transform="translate(-290.206 -28.216)" fill="#202128"/>
      <path id="Path_14" data-name="Path 14" d="M450.98,45.428c0-5.659,3.5-9.491,8.894-9.491,4.847,0,8.62,3.08,8.62,9.312v1.4H456.006v.012c0,2.734,1.612,4.417,4.155,4.417a3.454,3.454,0,0,0,3.522-2.125l4.7.31c-.716,3.4-3.773,5.611-8.309,5.611C454.43,54.872,450.98,51.243,450.98,45.428Zm12.727-1.934a3.614,3.614,0,0,0-3.749-3.761,3.873,3.873,0,0,0-3.952,3.761Z" transform="translate(-352.307 -28.216)" fill="#202128"/>
      <path id="Path_15" data-name="Path 15" d="M541.066,36.09H546v3.2h.191a4.445,4.445,0,0,1,4.405-3.462,4.827,4.827,0,0,1,2.507.669l-1.528,4.2a3.778,3.778,0,0,0-1.731-.43,3.641,3.641,0,0,0-3.689,3.785V54.428h-5.086Z" transform="translate(-422.674 -28.13)" fill="#202128"/>
      <path id="Path_16" data-name="Path 16" d="M594.088,45.416c0-5.683,3.462-9.479,9.026-9.479s9.026,3.8,9.026,9.479c0,5.647-3.462,9.456-9.026,9.456S594.088,51.064,594.088,45.416Zm12.882-.036c0-3.2-1.313-5.563-3.832-5.563-2.567,0-3.88,2.364-3.88,5.563s1.313,5.552,3.88,5.552C605.657,50.932,606.97,48.58,606.97,45.381Z" transform="translate(-464.133 -28.216)" fill="#202128"/>
      <path id="Path_17" data-name="Path 17" d="M676.111,37.022h5.146L684.1,49.343h.167l2.961-12.321h5.05l3.009,12.249h.155l2.794-12.249h5.134L698.388,55.36H693l-3.152-11.533h-.227L686.473,55.36H681.1Z" transform="translate(-528.283 -29.063)" fill="#202128"/>
    </g>
  </g>
</svg>
