<svg width="120" height="80" viewBox="0 0 120 80" fill="none" xmlns="http://www.w3.org/2000/svg">
<g filter="url(#filter0_d_2154_91928)">
<rect x="2" y="1" width="116" height="76" rx="6" fill="#FAFAFA"/>
<rect x="2.5" y="1.5" width="115" height="75" rx="5.5" stroke="#EDEDED"/>
<path d="M42 22.25C39.3766 22.25 37.25 24.3766 37.25 27V34C37.25 36.6234 39.3766 38.75 42 38.75H78C80.6234 38.75 82.75 36.6234 82.75 34V27C82.75 24.3766 80.6234 22.25 78 22.25H42Z" fill="#F7F7F7" stroke="#E6E6E7" stroke-width="1.5"/>
<path d="M36 27.25C33.3766 27.25 31.25 29.3766 31.25 32V39C31.25 41.6234 33.3766 43.75 36 43.75H84C86.6234 43.75 88.75 41.6234 88.75 39V32C88.75 29.3766 86.6234 27.25 84 27.25H36Z" fill="#FAFAFA" stroke="#E6E6E7" stroke-width="1.5"/>
<rect x="25.25" y="32.25" width="69.5" height="21.5" rx="4.75" fill="white"/>
<rect x="25.25" y="32.25" width="69.5" height="21.5" rx="4.75" stroke="#E6E6E7" stroke-width="1.5"/>
<rect opacity="0.48" x="66" y="41" width="20" height="4" rx="2" fill="#E6E6E7"/>
<rect x="48" y="41" width="14" height="4" rx="2" fill="#E6E6E7"/>
<g clip-path="url(#clip0_2154_91928)">
<path d="M41.8783 38.03C41.8404 38.0142 41.7987 38.01 41.7583 38.0178C41.718 38.0257 41.6809 38.0453 41.6517 38.0742L40.3842 39.3283C39.4656 38.4721 38.2558 37.9973 37 38C36.1477 38 35.3096 38.2179 34.5652 38.6329C33.8208 39.0479 33.1948 39.6464 32.7467 40.3714C32.2987 41.0964 32.0434 41.9238 32.0051 42.7753C31.9667 43.6267 32.1467 44.4738 32.5279 45.2361C32.909 45.9984 33.4787 46.6506 34.1828 47.1308C34.8869 47.611 35.7021 47.9033 36.551 47.9798C37.3998 48.0563 38.2541 47.9146 39.0328 47.5681C39.8115 47.2216 40.4886 46.6818 41 46C41.1326 45.8232 41.1895 45.601 41.1583 45.3822C41.127 45.1634 41.0101 44.966 40.8333 44.8333C40.7458 44.7677 40.6462 44.7199 40.5402 44.6928C40.4341 44.6656 40.3238 44.6596 40.2155 44.6751C39.9967 44.7063 39.7993 44.8232 39.6667 45C39.3258 45.4546 38.8743 45.8144 38.3552 46.0454C37.8361 46.2764 37.2665 46.3709 36.7006 46.3199C36.1348 46.2689 35.5913 46.074 35.1219 45.7539C34.6525 45.4337 34.2727 44.9989 34.0186 44.4907C33.7645 43.9825 33.6445 43.4178 33.67 42.8502C33.6956 42.2826 33.8658 41.7309 34.1645 41.2476C34.4632 40.7642 34.8805 40.3653 35.3768 40.0886C35.8731 39.8119 36.4318 39.6667 37 39.6667C37.8097 39.6651 38.5917 39.9618 39.1967 40.5L37.7842 41.9008C37.7565 41.9285 37.7371 41.9634 37.7282 42.0016C37.7194 42.0398 37.7215 42.0796 37.7342 42.1167C37.747 42.1539 37.7702 42.1868 37.8011 42.2113C37.8319 42.2358 37.8691 42.251 37.9083 42.255L41.775 42.6833H41.7983C41.8258 42.6836 41.8529 42.6783 41.8783 42.6679C41.9037 42.6575 41.9268 42.6422 41.9461 42.6228C41.9655 42.6034 41.9809 42.5804 41.9913 42.555C42.0017 42.5296 42.0069 42.5024 42.0067 42.475V38.2225C42.0066 38.1814 41.9944 38.1411 41.9715 38.1069C41.9487 38.0727 41.9163 38.0459 41.8783 38.03Z" fill="#D7D8D9"/>
</g>
</g>
<defs>
<filter id="filter0_d_2154_91928" x="0" y="0" width="120" height="80" filterUnits="userSpaceOnUse" color-interpolation-filters="sRGB">
<feFlood flood-opacity="0" result="BackgroundImageFix"/>
<feColorMatrix in="SourceAlpha" type="matrix" values="0 0 0 0 0 0 0 0 0 0 0 0 0 0 0 0 0 0 127 0" result="hardAlpha"/>
<feOffset dy="1"/>
<feGaussianBlur stdDeviation="1"/>
<feColorMatrix type="matrix" values="0 0 0 0 0.027451 0 0 0 0 0.0313726 0 0 0 0 0.0627451 0 0 0 0.1 0"/>
<feBlend mode="normal" in2="BackgroundImageFix" result="effect1_dropShadow_2154_91928"/>
<feBlend mode="normal" in="SourceGraphic" in2="effect1_dropShadow_2154_91928" result="shape"/>
</filter>
<clipPath id="clip0_2154_91928">
<rect width="10" height="10" fill="white" transform="translate(32 38)"/>
</clipPath>
</defs>
</svg>
