<svg width="120" height="80" viewBox="0 0 120 80" fill="none" xmlns="http://www.w3.org/2000/svg">
<g filter="url(#filter0_d_3351_92289)">
<rect x="2" y="1" width="116" height="76" rx="6" fill="#FAFAFA"/>
<rect x="2.5" y="1.5" width="115" height="75" rx="5.5" stroke="#EDEDED"/>
<rect x="30.25" y="28.25" width="60.5" height="21.5" rx="4.75" fill="white"/>
<rect x="30.25" y="28.25" width="60.5" height="21.5" rx="4.75" stroke="#E6E6E7" stroke-width="1.5"/>
<path d="M39.2937 36.8109L40.5924 34.1948C40.7592 33.8589 41.2408 33.8589 41.4076 34.1948L42.7063 36.8109L45.6107 37.233C45.9834 37.2871 46.1319 37.7426 45.8621 38.0038L43.7609 40.0388L44.2568 42.9136C44.3205 43.2828 43.9307 43.5643 43.5973 43.3899L41 42.0319L38.4027 43.3899C38.0693 43.5643 37.6795 43.2828 37.7432 42.9136L38.2391 40.0388L36.1379 38.0038C35.8681 37.7426 36.0166 37.2871 36.3893 37.233L39.2937 36.8109Z" fill="#FFC744"/>
<path d="M52.2937 36.8109L53.5924 34.1948C53.7592 33.8589 54.2408 33.8589 54.4076 34.1948L55.7063 36.8109L58.6107 37.233C58.9834 37.2871 59.1319 37.7426 58.8621 38.0038L56.7609 40.0388L57.2568 42.9136C57.3205 43.2828 56.9307 43.5643 56.5973 43.3899L54 42.0319L51.4027 43.3899C51.0693 43.5643 50.6795 43.2828 50.7432 42.9136L51.2391 40.0388L49.1379 38.0038C48.8681 37.7426 49.0166 37.2871 49.3893 37.233L52.2937 36.8109Z" fill="#FFC744"/>
<path d="M65.2937 36.8109L66.5924 34.1948C66.7592 33.8589 67.2408 33.8589 67.4076 34.1948L68.7063 36.8109L71.6107 37.233C71.9834 37.2871 72.1319 37.7426 71.8621 38.0038L69.7609 40.0388L70.2568 42.9136C70.3205 43.2828 69.9307 43.5643 69.5973 43.3899L67 42.0319L64.4027 43.3899C64.0693 43.5643 63.6795 43.2828 63.7432 42.9136L64.2391 40.0388L62.1379 38.0038C61.8681 37.7426 62.0166 37.2871 62.3893 37.233L65.2937 36.8109Z" fill="#FFC744"/>
<g opacity="0.48">
<path d="M78.2937 36.8109L79.5924 34.1948C79.7592 33.8589 80.2408 33.8589 80.4076 34.1948L81.7063 36.8109L84.6107 37.233C84.9834 37.2871 85.1319 37.7426 84.8621 38.0038L82.7609 40.0388L83.2568 42.9136C83.3205 43.2828 82.9307 43.5643 82.5973 43.3899L80 42.0319L77.4027 43.3899C77.0693 43.5643 76.6795 43.2828 76.7432 42.9136L77.2391 40.0388L75.1379 38.0038C74.8681 37.7426 75.0166 37.2871 75.3893 37.233L78.2937 36.8109Z" fill="#D7D8D9"/>
</g>
</g>
<defs>
<filter id="filter0_d_3351_92289" x="0" y="0" width="120" height="80" filterUnits="userSpaceOnUse" color-interpolation-filters="sRGB">
<feFlood flood-opacity="0" result="BackgroundImageFix"/>
<feColorMatrix in="SourceAlpha" type="matrix" values="0 0 0 0 0 0 0 0 0 0 0 0 0 0 0 0 0 0 127 0" result="hardAlpha"/>
<feOffset dy="1"/>
<feGaussianBlur stdDeviation="1"/>
<feColorMatrix type="matrix" values="0 0 0 0 0.027451 0 0 0 0 0.0313726 0 0 0 0 0.0627451 0 0 0 0.1 0"/>
<feBlend mode="normal" in2="BackgroundImageFix" result="effect1_dropShadow_3351_92289"/>
<feBlend mode="normal" in="SourceGraphic" in2="effect1_dropShadow_3351_92289" result="shape"/>
</filter>
</defs>
</svg>
