<svg width="120" height="80" viewBox="0 0 120 80" fill="none" xmlns="http://www.w3.org/2000/svg">
<g filter="url(#filter0_d_1314_36266)">
<rect x="2" y="1" width="116" height="76" rx="6" fill="#FAFAFA"/>
<rect x="2.5" y="1.5" width="115" height="75" rx="5.5" stroke="#EDEDED"/>
<rect x="25.25" y="28.25" width="69.5" height="21.5" rx="4.75" fill="white"/>
<rect x="25.25" y="28.25" width="69.5" height="21.5" rx="4.75" stroke="#E6E6E7" stroke-width="1.5"/>
<rect opacity="0.48" x="48" y="37" width="38" height="4" rx="2" fill="#E6E6E7"/>
<rect x="32" y="34" width="4" height="2" rx="1" fill="#D7D8D9"/>
<rect x="33" y="38" width="8" height="2" rx="1" fill="#D7D8D9"/>
<rect x="38" y="34" width="4" height="2" rx="1" fill="#D7D8D9"/>
<rect x="33" y="34" width="2" height="10" rx="1" fill="#D7D8D9"/>
<rect x="39" y="34" width="2" height="10" rx="1" fill="#D7D8D9"/>
<rect x="32" y="42" width="4" height="2" rx="1" fill="#D7D8D9"/>
<rect x="38" y="42" width="4" height="2" rx="1" fill="#D7D8D9"/>
</g>
<defs>
<filter id="filter0_d_1314_36266" x="0" y="0" width="120" height="80" filterUnits="userSpaceOnUse" color-interpolation-filters="sRGB">
<feFlood flood-opacity="0" result="BackgroundImageFix"/>
<feColorMatrix in="SourceAlpha" type="matrix" values="0 0 0 0 0 0 0 0 0 0 0 0 0 0 0 0 0 0 127 0" result="hardAlpha"/>
<feOffset dy="1"/>
<feGaussianBlur stdDeviation="1"/>
<feColorMatrix type="matrix" values="0 0 0 0 0.027451 0 0 0 0 0.0313726 0 0 0 0 0.0627451 0 0 0 0.1 0"/>
<feBlend mode="normal" in2="BackgroundImageFix" result="effect1_dropShadow_1314_36266"/>
<feBlend mode="normal" in="SourceGraphic" in2="effect1_dropShadow_1314_36266" result="shape"/>
</filter>
</defs>
</svg>
