<svg width="120" height="80" viewBox="0 0 120 80" fill="none" xmlns="http://www.w3.org/2000/svg">
<g filter="url(#filter0_d_1314_36388)">
<rect x="2" y="1" width="116" height="76" rx="6" fill="#FAFAFA"/>
<rect x="2.5" y="1.5" width="115" height="75" rx="5.5" stroke="#EDEDED"/>
<rect x="25.25" y="20.25" width="69.5" height="38.5" rx="4.75" fill="white"/>
<rect x="25.25" y="20.25" width="69.5" height="38.5" rx="4.75" stroke="#E6E6E7" stroke-width="1.5"/>
<rect x="76" y="50" width="14" height="4" rx="2" fill="#4E5CFE"/>
<rect x="26" y="45" width="68" height="1" fill="#EDEDED"/>
<rect x="32" y="27" width="40" height="4" rx="2" fill="#E6E6E7"/>
<rect opacity="0.48" x="32" y="35" width="32" height="4" rx="2" fill="#E6E6E7"/>
<g clip-path="url(#clip0_1314_36388)">
<path d="M83.0625 30.1875L78.1875 35.0625C78.0625 35.1875 78 35.3125 78 35.5V37.375C78 37.75 78.25 38 78.625 38H80.5C80.6875 38 80.8125 37.9375 80.9375 37.8125L85.8125 32.9375L83.0625 30.1875Z" fill="#D7D8D9"/>
<path d="M87.8125 30.0625L85.9375 28.1875C85.6875 27.9375 85.3125 27.9375 85.0625 28.1875L83.9375 29.3125L86.6875 32.0625L87.8125 30.9375C88.0625 30.6875 88.0625 30.3125 87.8125 30.0625Z" fill="#D7D8D9"/>
</g>
</g>
<defs>
<filter id="filter0_d_1314_36388" x="0" y="0" width="120" height="80" filterUnits="userSpaceOnUse" color-interpolation-filters="sRGB">
<feFlood flood-opacity="0" result="BackgroundImageFix"/>
<feColorMatrix in="SourceAlpha" type="matrix" values="0 0 0 0 0 0 0 0 0 0 0 0 0 0 0 0 0 0 127 0" result="hardAlpha"/>
<feOffset dy="1"/>
<feGaussianBlur stdDeviation="1"/>
<feColorMatrix type="matrix" values="0 0 0 0 0.027451 0 0 0 0 0.0313726 0 0 0 0 0.0627451 0 0 0 0.1 0"/>
<feBlend mode="normal" in2="BackgroundImageFix" result="effect1_dropShadow_1314_36388"/>
<feBlend mode="normal" in="SourceGraphic" in2="effect1_dropShadow_1314_36388" result="shape"/>
</filter>
<clipPath id="clip0_1314_36388">
<rect width="10" height="10" fill="white" transform="translate(78 28)"/>
</clipPath>
</defs>
</svg>
