<svg width="120" height="80" viewBox="0 0 120 80" fill="none" xmlns="http://www.w3.org/2000/svg">
<g filter="url(#filter0_d_1314_36343)">
<rect x="2" y="1" width="116" height="76" rx="6" fill="#FAFAFA"/>
<rect x="2.5" y="1.5" width="115" height="75" rx="5.5" stroke="#EDEDED"/>
<g clip-path="url(#clip0_1314_36343)">
<rect x="26" y="21" width="68" height="36" rx="4" fill="white"/>
<g opacity="0.56">
<path d="M58.7717 95.777L58.6539 95.7299L58.5297 95.7845L58.4478 95.9483L56.5856 98.0023L56.4236 98.142L56.1193 98.2648L55.8974 98.3006L55.236 98.2938L54.823 98.3828L54.4723 98.5549L54.1594 98.8532L53.8664 99.3221L53.5225 100.392L53.5603 100.43L53.629 100.528L53.6713 100.685L53.6203 100.905L53.5248 100.976L53.2605 100.983L53.1983 100.996L53.0472 101.638L52.9918 102.048L52.8362 102.312L52.1749 102.578L51.6354 102.685L51.4134 102.669L51.2069 102.564L50.7807 102.252L50.5833 102.184L50.1148 102.295L49.2847 102.778L48.7407 102.821L48.3213 102.742L48.2013 102.371L48.29 101.289L48.2345 100.8L48.1303 100.353L48.108 99.883L48.2968 99.3274L47.6754 98.9474L45.549 98.7511L45.64 98.2001L45.5777 97.5175L45.2692 96.1088L45.1737 95.8097L44.9208 95.2323L44.8208 94.9144L44.6766 93.7754L44.5879 93.517L44.2658 93.2774L43.9306 93.3354L43.5954 93.4808L43.2825 93.5064L43.0118 93.3437L42.5901 92.8457L42.3104 92.6164L42.0042 92.5241L41.3429 92.4657L41.0563 92.2653L40.9208 92.0171L40.7056 91.0528L40.1994 90.0106L39.8265 89.0022L39.8178 88.1114L40.4082 87.4263L39.8378 87.1189L39.7445 86.7117L39.7978 86.2013L39.6645 85.5979L39.347 85.4054L38.5014 85.9471L38.002 85.949L36.4063 85.0668L35.5762 84.7711L34.7106 84.8777H34.7574L34.7951 84.8966L34.8238 84.9342L34.8484 84.9911L34.247 85.5154L33.9363 85.5772L33.5101 85.228L33.3905 85.0028L33.2417 84.4868L33.1507 84.3044L32.8955 84.115L32.3916 84.0099L32.1387 83.8961L31.4618 83.3127L31.1356 83.1319L29.7638 82.872L29.4841 82.548L29.6238 81.933L28.3697 81.1126L28.0654 81.0365L28.0658 81.0316L28.0968 80.4764L29.3731 77.9768L32.0809 77.4118L33.3704 76.4351L35.4478 75.4603L35.6789 74.4866L35.6966 72.7702L35.3327 68.4626L35.5279 67.7744L35.9895 67.684L36.4622 67.4614L36.5044 66.8569L36.2647 66.2644L36.549 65.5028L37.1772 65.3532L40.2976 65.3818L40.0556 64.1694L39.3651 63.433L38.6728 62.897L38.1024 62.1233L37.6853 60.8385L38.1979 59.4603L38.5796 57.3381L39.1545 56.1283L40.8325 55.0457L40.9876 53.8438L40.6992 53.2148L40.566 52.4426L40.7257 51.9175L40.9941 51.5962L41.7355 48.9806L42.8121 48.4544L45.8461 48.3531L46.5475 48.0239L47.2288 47.5538L47.9835 47.7026L48.6426 48.3723L51.45 49.8896L52.8415 50.1796L54.555 50.169L55.2941 49.5246L56.7392 49.7927L58.0333 50.9826L60.0374 54.1775L60.7633 54.3967L62.914 54.2792L65.2488 55.4676L67.0865 55.8251L67.3549 55.9723L67.4349 56.3505L67.4394 56.7671L67.3371 57.0349L65.8656 57.2764L65.0578 58.8071L65.6482 59.51L67.2662 59.9748L68.0076 60.539L68.6067 61.8728L69.6255 63.1185L68.7645 63.2458L67.2839 64.4937L66.8532 65.4289L67.6055 65.8207L69.0661 66.0399L69.6674 66.2749L69.8117 67.0049L69.8671 67.6076L67.1525 69.309L66.4734 69.4175L65.2684 69.3195L64.0922 69.5037L62.1899 70.9829L61.6441 71.1068L61.0937 71.1094L59.9042 70.4231L59.327 71.2846L58.7301 72.4847L57.7981 73.8154L56.3643 73.6094L55.6875 74.136L56.8283 75.2742L57.8294 76.6623L52.7358 82.3767L52.2655 83.0716L51.7883 84.051L51.544 85.1648L51.977 85.7305L52.5474 85.7889L53.0069 86.3697L53.0533 87.4794L53.6947 88.6305L54.789 89.0587L55.2239 89.8573L55.5501 90.8765L56.2469 91.5285L57.0503 91.8924L58.5017 92.1493L58.4285 93.0205L58.0623 93.7614L57.8804 94.4522L58.1533 95.0489L58.6595 95.3905L58.7717 95.777Z" stroke="#E6E6E7" stroke-width="1.5" stroke-linecap="round" stroke-linejoin="round"/>
<path d="M4.9801 68.4385L5.07108 68.0381L6.62034 64.1769L7.74566 63.3132L9.04615 63.1004L9.81851 61.773L10.3134 59.875L11.8559 56.9359L13.6449 54.2852L14.4127 52.5036L15.4335 51.1811L16.1148 50.7261L16.461 49.6933L16.5988 48.8093L16.8253 47.9768L18.0748 45.1029L18.632 44.4994L19.3311 44.2674L20.068 44.3194L20.8159 44.1341L21.5282 43.6998L22.2719 43.6576L22.9797 44.023L23.2658 44.7571L23.3878 45.5903L24.5153 46.5026L25.8827 46.5783L28.4263 45.6441L30.8811 44.1793L31.3628 45.0456L31.9955 45.5526L36.7984 46.79L38.3167 46.7485L38.5965 46.5026L38.7939 46.15L39.0491 46.0054L39.6263 46.7112L40.1257 47.6827L41.7369 48.9833L40.9955 51.5989L40.7271 51.9202L40.5674 52.4452L40.7007 53.2174L40.9891 53.8464L40.8339 55.0484L39.1559 56.1309L38.581 57.3408L38.1993 59.4629L37.6867 60.8411L38.1038 62.1259L38.6742 62.8996L39.3666 63.4356L40.057 64.172L40.299 65.3845L37.1786 65.3558L36.5504 65.5054L36.2662 66.267L36.5059 66.8595L36.4636 67.4641L35.991 67.6867L35.5293 67.7771L35.3341 68.4652L35.698 72.7728L35.6803 74.4893L35.4493 75.4629L33.3719 76.4378L32.0823 77.4145L29.3745 77.9795L28.0982 80.479L28.0672 81.0342L28.0669 81.0391L27.7098 80.9499L27.8053 81.7051L27.9185 81.7533L28.0895 81.6998L28.2737 81.7051L28.4247 81.936L28.4625 82.2686L28.3538 82.4151L27.6546 82.6234L26.7936 82.6494L26.4028 82.7511L25.7702 83.3161L24.9887 83.5538L24.2077 83.3884L22.8162 82.0034L22.5742 81.6689L22.4055 81.2708L22.2855 80.8587L22.139 80.4896L21.9015 80.2048L21.6996 80.0029L21.6331 79.8112L21.7018 79.6281L21.9015 79.4571L21.9102 79.433L21.9147 79.407L21.9102 79.3761L21.9015 79.3434L21.5995 79.2793L21.0159 78.9893L20.7339 78.9132L20.5052 78.9667L20.3232 79.0722L20.1058 79.1117L19.7705 78.9599L18.7275 77.6386L18.683 77.3949L18.8408 77.0578L19.076 76.9383L20.1126 76.8984L20.6852 76.6736L21.5995 76.1255L22.0344 75.7485L22.2364 75.2415L21.9012 74.6219L21.6747 74.3966L21.626 74.0591L21.6682 73.7525L21.9012 73.1254L21.9499 73.0195L21.9653 72.9189L21.9544 72.8289L21.9012 72.7528L21.5059 72.2187L21.3859 72.1061L21.022 71.9709L20.8823 72.0609L20.8268 72.2899L20.7068 72.5637L20.0699 73.4459L19.7015 73.7472L19.2043 73.8772L17.2843 73.5378L16.2613 73.6312L15.6309 74.3966L15.5199 74.4712L15.4067 74.4953L15.2911 74.4693L15.1824 74.3966L14.9827 73.7732L14.5142 73.3939L14.0393 73.4305L13.8064 74.0437L13.5199 73.8271L13.3712 73.4824L13.3289 73.0579L13.3557 72.6214L13.2579 72.5366L13.1692 72.4394L13.0937 72.3268L13.0337 72.2003L13.4289 72.0409L12.985 71.8518L11.9774 71.8812L11.4671 71.7339L10.7102 71.2552L10.4992 71.0262L10.3704 70.7346L10.2372 70.3007L10.1639 69.9361L10.2104 69.8423L9.95971 69.7659L9.30474 69.9015L9.00954 69.8981L8.73434 69.7523L8.23491 69.3319L7.99972 69.1877L5.79361 68.5692L5.29645 68.6283L4.9801 68.4385Z" stroke="#E6E6E7" stroke-width="1.5" stroke-linecap="round" stroke-linejoin="round"/>
<path d="M103.312 -36.6741L103.598 -35.4243L104.091 -34.26L104.435 -32.8472L104.974 -28.7287L106.168 -25.7225L106.958 -24.1966L108.099 -23.5744L109.28 -23.4038L110.265 -22.641L109.917 -21.9984L110.006 -21.0925L110.554 -20.1121L111.372 -19.6623L111.898 -19.1199L112.211 -18.237L112.506 -16.9334L113.075 -15.8949L114.606 -15.099L116.235 -15.3408L117.307 -16.4998L118.346 -15.713L118.006 -13.7558L118.546 -12.9976L119.216 -12.5298L120.426 -13.1366L121.671 -13.4873L122.006 -11.8228L122.139 -9.97898L122.399 -8.73146L122.468 -7.412L122.401 -6.64624L123.602 -5.36595L124.048 -4.74671L124.523 -4.34254L124.672 -4.13312L124.725 -3.78734L124.652 -3.49806L124.559 -3.2197L124.539 -2.90857L124.616 -2.4577L124.718 -2.16127L124.898 -1.99779L125.2 -1.94883L125.255 -1.78159L125.127 -0.618058L125.278 -0.241391L125.639 0.273135L126.074 0.607994L126.445 0.450169L126.696 0.862987L127.219 0.991064L128.351 0.92929L131.694 1.62198L133.372 1.38995L134 1.59109L134.495 2.07172L134.697 2.86724L135.154 2.62616L135.545 2.85556L136.148 3.58667L136.042 3.77689L135.933 4.14262L135.868 4.30384L136.226 4.52457L136.574 4.41609L136.898 4.19235L136.21 5.48544L134.17 8.4969L133.556 9.93162L132.845 10.8413L132.009 11.155L129.492 9.86043L128.613 9.65665L128.222 9.91806L127.867 10.2951L127.729 10.7388L127.627 11.2597L126.433 12.2308L124.073 12.0067L123.248 12.1031L121.197 13.6388L120.445 13.8817L119.355 13.6768L116.414 14.2625L113.305 14.2437L111.671 14.7138L110.146 15.8491L110.282 16.7267L110.628 17.7023L111.052 18.61L111.138 19.5298L111.66 20.818L112.413 21.9676L111.229 22.6833L110.402 23.8476L111.485 25.5121L111.34 26.3004L110.805 26.8074L109.283 27.3445L107.718 27.1001L106.95 26.7859L106.174 26.9927L105.952 27.8756L105.981 28.2305L106.254 28.6904L106.571 29.0682L107.168 29.3443L108.274 29.5786L108.651 29.5386L109.179 29.3055L109.383 29.3251L109.716 29.5514L109.794 29.8562L109.776 30.2479L109.823 30.7364L110.209 31.3368L110.282 31.7621L109.956 32.1463V32.3828L110.617 32.4495L110.595 33.8579L110.076 34.5788L109.572 34.9852L109.527 35.8211L110.386 36.8478L110.255 37.8332L109.993 38.8694L110.033 39.5881L109.798 39.6235L109.596 39.7953L109.334 40.3422L108.943 42.4722L108.764 42.9702L108.684 43.267L108.65 43.6591L108.697 43.9273L108.896 44.5398L109.065 45.6351L109.591 46.9482L102.722 48.3761L99.166 47.2634L97.5148 47.1207L96.0456 46.1666L95.9078 45.6475L95.8168 45.0799L95.1732 44.3556L94.9935 43.2075L94.3453 42.9849L93.6708 43.6222L93.0403 44.501L92.3303 44.9059L89.3473 45.3831L86.7482 44.8445L86.1955 44.4256L85.7406 43.702L85.2412 43.1318L81.7055 40.961L81.0687 39.3485L79.8833 38.9218L79.8101 37.9123L80.083 36.9793L81.459 35.6918L81.8184 34.7475L81.8207 33.6439L81.5432 33.3294L80.7508 32.949L80.5889 32.3926L80.5088 31.2954L80.2982 30.2347L79.6591 28.7028L80.2163 26.7626L81.8897 26.7607L83.177 27.4564L84.7372 27.6722L85.0147 27.105L85.0702 26.2823L84.7418 25.4021L83.5855 24.1979L83.3858 23.2091L83.499 22.7699L83.7142 22.4524L83.9052 22.055L83.7674 21.4859L82.5024 19.7946L80.9464 18.5889L79.5194 17.9305L77.2423 18.1915L76.47 17.9422L76.2835 17.3806L76.3367 16.7252L75.8263 15.959L75.2469 15.2969L75.0694 14.5578L75.7863 14.1386L76.0106 12.3946L75.7131 12.0199L74.8743 11.4579L73.3983 10.8631L73.0653 10.9441L72.7569 10.7791L72.322 9.80695L72.2465 8.58089L71.9758 7.68894L71.3832 7.27687L70.624 7.05087L69.9494 6.70208L69.4322 5.80184L68.8486 5.05755L68.0495 5.12912L67.3658 5.82935L62.9045 6.7533L60.9181 5.15021L59.815 4.63192L57.5557 4.15392L55.4847 2.72862L55.6267 2.12859L55.7131 1.53949L57.3001 -1.07948L57.2137 -1.73073L56.772 -2.18236L56.8853 -3.53459L57.4557 -4.69962L58.9007 -8.9051L59.8218 -9.15257L59.8041 -10.3225L59.185 -11.8164L58.8256 -12.4842L58.5882 -13.2247L58.7701 -13.9408L59.1986 -14.4161L59.3073 -15.725L58.9744 -17.1816L60.0242 -17.0449L60.9208 -17.8005L61.3224 -18.4065L61.7773 -18.8438L62.1925 -18.6709L62.5897 -18.3881L62.9981 -18.3402L63.2046 -18.9467L63.3179 -19.6397L63.3802 -20.3422L63.2069 -21.3912L63.1891 -22.0945L63.0604 -22.7668L64.1612 -23.2847L65.191 -24.1179L65.9324 -24.3059L66.5515 -24.8223L67.1065 -25.9222L67.9589 -26.1881L68.3273 -26.1086L68.6625 -25.8777L68.8022 -25.5621L68.9909 -25.3368L75.7716 -24.2908L77.3873 -24.5876L78.0355 -24.9142L78.5927 -25.5666L78.9566 -26.7723L79.6202 -27.2906L80.4458 -27.2036L81.2314 -27.4382L84.2344 -29.1743L84.9467 -30.0225L85.7236 -30.6538L87.2619 -30.6354L88.6247 -30.9198L90.1981 -31.8256L92.2514 -31.8174L94.1823 -32.4347L95.8116 -34.3742L97.7202 -34.1941L98.6945 -34.3444L99.5711 -34.9655L100.186 -36.1814L100.714 -36.4677L103.312 -36.6741Z" stroke="#E6E6E7" stroke-width="1.5" stroke-linecap="round" stroke-linejoin="round"/>
<path d="M55.487 2.72486L57.5579 4.15016L59.8173 4.62814L60.9203 5.14644L62.9067 6.74954L67.368 5.82557L68.0517 5.12535L68.8508 5.05378L69.4345 5.79808L69.9516 6.6983L70.6262 7.0471L71.3854 7.2731L71.9781 7.68517L72.2487 8.57712L72.3242 9.80317L72.7591 10.7753L73.0675 10.9403L73.4005 10.8593L74.8765 11.4541L75.7153 12.0161L76.0128 12.3909L75.7885 14.1348L75.0717 14.5541L75.2491 15.2931L75.8286 15.9553L76.3389 16.7214L76.2857 17.3768L76.4722 17.9384L77.2446 18.1878L79.5216 17.9267L80.9486 18.5852L82.5046 19.7909L83.7696 21.4821L83.9074 22.0512L83.7164 22.4486L83.5012 22.7662L83.388 23.2053L83.5877 24.1941L84.744 25.3983L85.0724 26.2786L85.0169 27.1012L84.7394 27.6685L83.1792 27.4526L81.892 26.7569L80.2185 26.7588L79.6613 28.699L80.3004 30.2309L80.5111 31.2916L80.5911 32.3889L80.753 32.9452L81.5454 33.3256L81.8229 33.6401L81.8206 34.7438L81.4612 35.6881L80.0852 36.9755L79.8123 37.9085L79.8855 38.918L79.2706 39.3764L78.4805 41.3256L77.7682 41.6526L77.0535 41.7648L76.3722 42.0971L74.8806 43.5145L74.1906 43.7115L71.8157 43.3804L71.1453 43.6256L70.6194 44.3175L70.0868 46.3771L71.0679 47.8638L71.7316 48.3953L71.9403 49.5343L71.7693 50.6463L71.2831 51.2218L68.4465 49.1449L67.6851 49.282L67.4099 50.3792L67.3944 51.4659L67.4809 52.5379L67.1147 53.5564L66.371 54.057L65.7497 54.6329L65.2503 55.471L62.9154 54.2826L60.7648 54.4001L60.0389 54.1809L58.0347 50.986L56.7407 49.7961L55.2956 49.5279L54.5564 50.1724L52.843 50.183L51.4515 49.8929L48.644 48.3757L47.9849 47.706L47.2303 47.5572L46.5489 48.0273L45.8475 48.3565L42.8135 48.4578L41.7369 48.984L40.1257 47.6834L39.6263 46.712L39.0491 46.0061L38.7939 46.1507L38.5965 46.5033L38.3168 46.7493L36.7984 46.7907L31.9955 45.5534L31.3628 45.0464L30.8811 44.18L30.7456 42.5849L30.5259 41.6466L29.2964 40.546L28.8947 39.5986L28.8347 38.4905L29.1809 37.7277L30.7524 37.3812L31.2919 36.5265L31.6494 35.4481L32.7215 35.125L33.8913 35.7016L34.9121 34.9705L35.5112 33.335L35.4757 31.5037L35.2624 29.6177L35.3689 27.3299L35.9215 25.2247L36.9204 22.84L37.4753 22.0814L38.7048 21.5006L41.8143 21.8388L42.0585 21.5721L43.0906 19.7521L43.1771 18.6594L42.7732 17.5414L42.5312 16.3195L42.6844 15.1315L42.9796 14.0614L43.6588 14.0019L44.4002 14.0874L45.8384 13.7484L46.926 12.467L47.1235 10.2845L47.3477 9.30673L49.4896 8.3918L50.8192 7.11491L50.7614 6.77515L50.4439 6.68287L50.031 5.80523L49.9955 4.679L50.1997 4.4093L50.3552 4.08161L50.7305 3.87519L53.3805 3.82096L54.1929 3.57649L54.3903 3.17986L54.6565 2.78324L55.0649 2.70715L55.487 2.72486Z" stroke="#E6E6E7" stroke-width="1.5" stroke-linecap="round" stroke-linejoin="round"/>
<path d="M49.9959 4.679L50.0314 5.80523L50.4444 6.68287L50.7618 6.77515L50.8196 7.11491L49.49 8.3918L47.3481 9.30673L47.1239 10.2845L46.9264 12.467L45.8389 13.7484L44.4006 14.0874L43.6592 14.0019L42.98 14.0614L42.6848 15.1315L42.5316 16.3195L42.7736 17.5414L43.1775 18.6594L43.091 19.7521L42.0589 21.5721L41.8147 21.8388L38.7052 21.5006L37.4757 22.0814L36.9208 22.84L35.9219 25.2247L35.3693 27.3299L35.2628 29.6177L35.4761 31.5037L35.5116 33.335L34.9125 34.9705L33.8917 35.7016L32.7219 35.125L31.6498 35.4481L31.2923 36.5265L30.7528 37.3812L29.1813 37.7277L28.8351 38.4905L28.8952 39.5986L29.2968 40.546L30.5263 41.6466L30.746 42.5849L30.8816 44.18L28.4267 45.6449L25.8831 46.579L24.5158 46.5033L23.3882 45.591L23.2662 44.7578L22.9801 44.0237L22.2723 43.6584L21.5286 43.7005L21.2489 41.998L21.0046 38.4863L21.6105 37.0422L20.8359 36.4199L20.019 36.1928L18.703 36.458L17.4335 36.1619L16.9341 34.9031L16.8163 33.4156L17.1024 32.6827L17.6241 32.3388L17.9216 31.4894L18.1349 30.498L16.002 29.116L13.6294 28.4655L11.1058 28.455L10.207 28.6403L9.39463 30.4863L4.95788 31.2687L2.48336 30.3858L1.30934 29.09L-0.77258 27.9306L-1.70274 26.2869L-1.7737 25.1629L-2.15309 24.2909L-4.57438 22.9748L-5.44678 22.7424L-7.3222 23.1037L-7.99264 20.5242L-9.39316 18.9784L-10.9647 20.0459L-11.939 19.725L-12.8624 19.0922L-13.1799 18.1648L-13.0821 16.9677L-12.8869 16.2988L-12.9201 15.6023L-13.2754 15.3793L-13.6461 15.5394L-14.4471 15.5251L-15.2085 14.762L-15.7035 13.8565L-16.0874 12.7702L-17.2705 12.14L-17.8586 11.5302L-18.3626 10.784L-18.5313 9.68376L-18.5181 8.50631L-18.2716 7.47688L-18.2229 6.94653L-18.1119 6.44143L-17.415 4.37842L-17.4619 2.22276L-17.8903 1.18014L-18.8024 -0.436887L-18.3429 -0.756677L-17.7657 -0.754792L-17.7635 -1.81021L-17.9322 -3.09577L-18.1942 -4.32597L-18.9533 -6.40818L-19.0356 -8.37815L-18.9424 -9.12772L-18.9201 -9.92135L-18.7714 -10.2521L-18.4452 -10.2136L-16.4124 -10.857L-15.9975 -11.1259L-15.791 -11.6819L-16.2527 -13.4259L-16.9118 -14.0394L-14.8235 -16.7236L-14.8945 -18.9926L-14.466 -21.0421L-13.2788 -20.6466L-11.9647 -19.8631L-10.6242 -20.0443L-9.30596 -20.5603L-7.23537 -22.5209L-5.49737 -25.2494L-2.3879 -27.0642L-0.805413 -27.5576L-0.18405 -28.1471L0.322179 -29.0451L0.981295 -29.8621L0.845769 -30.8904L0.175329 -31.7492L-0.621571 -32.168L-2.24181 -32.5816L-3.5891 -33.8913L-3.92206 -35.1712L-3.94433 -36.6037L-3.46037 -37.2918L0.492427 -37.1867L1.1406 -37.3122L1.68873 -39.6098L2.1036 -40.7967L2.66947 -41.7813L3.43504 -42.1199L4.25383 -42.1425L5.05716 -41.8879L6.08924 -40.6144L6.97938 -39.046L8.2357 -38.2791L12.6079 -38.1005L13.7555 -37.47L14.7098 -36.3264L14.1149 -35.0036L12.5679 -32.9677L12.8144 -31.8942L14.6389 -30.4689L15.6732 -28.137L13.7113 -26.4796L13.8978 -24.9681L14.5637 -23.6893L14.2595 -21.4696L13.2942 -19.2457L15.0409 -18.6156L16.6702 -17.3952L17.7223 -15.0783L17.2629 -12.5708L17.0077 -12.0861L16.6615 -11.9618L16.2776 -11.9855L15.9159 -11.7094L15.7717 -10.7952L16.5441 -10.0532L16.8816 -9.22226L17.31 -8.53409L18.1825 -8.36798L19.0435 -8.65462L19.4206 -8.99965L20.0911 -8.43465L20.2776 -7.96118L20.3708 -7.37395L20.5396 -7.16227L20.7815 -7.02177L22.1511 -6.55885L23.6449 -6.47674L25.2628 -5.60023L27.4603 -3.58469L28.2258 -3.18919L29.0205 -3.13382L29.7464 -2.83926L30.3678 -2.06371L31.0624 -1.40868L33.2375 -0.832762L33.9721 -1.16498L35.2217 -2.63361L35.6347 -2.52098L35.9431 -2.30628L36.1096 -1.66105L36.3738 -1.09342L36.78 -0.486603L37.2994 -0.323133L37.6233 -0.514478L37.8298 -0.905088L38.2247 -1.07383L38.6377 -1.11564L39.3836 -0.769482L40.0272 -0.0078613L43.5806 2.9049L44.1688 4.23077L44.9412 4.17013L47.1918 3.22017L47.9532 3.11319L49.9959 4.679Z" stroke="#E6E6E7" stroke-width="1.5" stroke-linecap="round" stroke-linejoin="round"/>
<path d="M79.8856 38.9184L81.071 39.3452L81.7078 40.9577L85.2435 43.1284L85.7429 43.6987L86.1978 44.4222L86.7504 44.8411L89.3495 45.3797L92.3325 44.9025L93.0426 44.4976L93.673 43.6188L94.3476 42.9815L94.9958 43.2041L95.1755 44.3522L95.8191 45.0765L95.9101 45.6442L96.0479 46.1632L97.5171 47.1173L99.1683 47.2601L102.724 48.3727L109.593 46.9448L109.678 47.4043L109.587 47.6051L109.42 47.7493L109.231 47.839L109.078 47.8699V48.103L109.475 48.3968L109.542 49.062L109.384 50.5322L109.36 50.6403L109.304 50.7043L109.249 50.8037L109.224 51.0173L109.271 51.2113L109.371 51.3002L109.471 51.3635L109.517 51.4821L109.557 51.7993L110.103 53.8773L110.212 54.6069L110.281 55.0661L110.305 56.3204L110.13 57.6523L109.977 58.1894L109.724 58.7962L109.396 59.2946L109.012 59.4998L108.448 59.5917L108.08 59.8592L107.465 60.8845L106.444 62.0958L106.293 62.6243L106.182 63.2748L105.911 63.7995L105.252 64.5924L104.857 64.9276L103.481 65.2839L101.428 66.203L101.51 66.3578L101.721 66.8938L101.313 67.3217L100.765 67.6434L100.219 67.7624L99.815 67.5824L98.4967 68.7304L98.4235 68.7564L98.1151 68.7304L98.0309 68.7956L98.0419 68.9451L98.0683 69.1086L98.0419 69.2111L97.8021 69.3881L97.6557 69.3794L97.456 69.2111L97.3405 69.6879L97.0853 69.9181L96.8365 70.045L96.7232 70.222L96.6964 70.5042L96.6187 70.5693L96.5032 70.578L96.3499 70.6917L95.9747 71.2202V71.2756L95.5953 71.3569L95.3842 71.1731L95.1932 70.9234L94.8758 70.7957L94.6628 70.8477L93.7772 71.2752L93.5753 71.4417L93.3756 71.6707L93.1359 71.8737L92.8097 71.9622L91.2163 72.0142L90.9943 72.0975L90.8146 72.2553L90.6036 72.5351L90.4039 72.6496L89.818 72.7069L89.5251 72.9001L89.1921 72.6817L88.9079 72.8655L88.6172 73.1721L88.2642 73.3367L87.4409 72.5536L87.3012 72.7615L87.1657 73.3367L86.7131 73.794L86.6398 73.8354L86.4488 73.8459L86.3601 73.9085L86.2869 74.0731L86.2605 74.429L86.1982 74.6057L85.8984 74.8972L85.2038 75.2313L84.9396 75.6449L84.8554 75.9993L84.2118 76.686L81.3907 76.6092L79.8128 75.6622L79.4066 74.8038L78.4322 73.4324L78.0615 72.6508L77.6999 71.1072L76.7188 69.1662L75.0653 68.063L73.2631 67.4946L72.5395 66.7345L71.6961 66.2821L69.6697 66.2787L69.0683 66.0437L67.6078 65.8245L66.8554 65.4327L67.2862 64.4975L68.7667 63.2496L69.6278 63.1222L68.6089 61.8766L68.0098 60.5428L67.2684 59.9786L65.6505 59.5138L65.0601 58.8109L65.8679 57.2801L67.3394 57.0387L67.4417 56.7709L67.4372 56.3543L67.3571 55.9761L67.0887 55.8288L65.2503 55.471L65.7497 54.6341L66.3711 54.0581L67.1148 53.5575L67.481 52.539L67.3945 51.467L67.41 50.3804L67.6852 49.2831L68.4466 49.146L71.2831 51.223L71.7694 50.6474L71.9404 49.5355L71.7316 48.3965L71.068 47.865L70.0868 46.3783L70.6195 44.3187L71.1454 43.6267L71.8158 43.3815L74.1906 43.7126L74.8807 43.5156L76.3722 42.0982L77.0536 41.766L77.7682 41.6537L78.4806 41.3268L79.2707 39.3776L79.8856 38.9184Z" stroke="#E6E6E7" stroke-width="1.5" stroke-linecap="round" stroke-linejoin="round"/>
</g>
<g clip-path="url(#clip1_1314_36343)">
<path d="M60 29C56.1 29 53 32.1 53 36C53 37.9 53.7 39.7 55.1 41C55.2 41.1 59.2 44.7 59.3 44.8C59.7 45.1 60.3 45.1 60.6 44.8C60.7 44.7 64.8 41.1 64.8 41C66.2 39.7 66.9 37.9 66.9 36C67 32.1 63.9 29 60 29ZM60 38C58.9 38 58 37.1 58 36C58 34.9 58.9 34 60 34C61.1 34 62 34.9 62 36C62 37.1 61.1 38 60 38Z" fill="#FF5A44"/>
</g>
</g>
<rect x="25.25" y="20.25" width="69.5" height="37.5" rx="4.75" stroke="#E6E6E7" stroke-width="1.5"/>
</g>
<defs>
<filter id="filter0_d_1314_36343" x="0" y="0" width="120" height="80" filterUnits="userSpaceOnUse" color-interpolation-filters="sRGB">
<feFlood flood-opacity="0" result="BackgroundImageFix"/>
<feColorMatrix in="SourceAlpha" type="matrix" values="0 0 0 0 0 0 0 0 0 0 0 0 0 0 0 0 0 0 127 0" result="hardAlpha"/>
<feOffset dy="1"/>
<feGaussianBlur stdDeviation="1"/>
<feColorMatrix type="matrix" values="0 0 0 0 0.027451 0 0 0 0 0.0313726 0 0 0 0 0.0627451 0 0 0 0.1 0"/>
<feBlend mode="normal" in2="BackgroundImageFix" result="effect1_dropShadow_1314_36343"/>
<feBlend mode="normal" in="SourceGraphic" in2="effect1_dropShadow_1314_36343" result="shape"/>
</filter>
<clipPath id="clip0_1314_36343">
<rect x="26" y="21" width="68" height="36" rx="4" fill="white"/>
</clipPath>
<clipPath id="clip1_1314_36343">
<rect width="16" height="16" fill="white" transform="translate(52 29)"/>
</clipPath>
</defs>
</svg>
