<svg width="120" height="80" viewBox="0 0 120 80" fill="none" xmlns="http://www.w3.org/2000/svg">
<g filter="url(#filter0_d_1314_36302)">
<rect x="2" y="1" width="116" height="76" rx="6" fill="#F7F7F7"/>
<rect x="2.5" y="1.5" width="115" height="75" rx="5.5" stroke="#D7D8D9"/>
<rect x="25.25" y="26.25" width="69.5" height="25.5" rx="4.75" fill="white"/>
<rect x="25.25" y="26.25" width="69.5" height="25.5" rx="4.75" stroke="#E6E6E7" stroke-width="1.5"/>
<rect x="32" y="33" width="15" height="4" rx="2" fill="#E6E6E7"/>
<rect opacity="0.48" x="32" y="41" width="10" height="4" rx="2" fill="#E6E6E7"/>
<path d="M57.5 38.8194H55.3334M57.5 38.8194C57.5 38.8194 59.3056 38.8194 59.3056 37.0139C59.3056 35.2083 57.5001 35.2083 57.5 35.2083C57.5 35.2083 57.5 35.2083 57.5 35.2083H55.9334C55.602 35.2083 55.3334 35.477 55.3334 35.8083V38.8194M57.5 38.8194C57.5 38.8194 59.6667 38.8194 59.6667 40.8056C59.6667 42.7917 57.5 42.7917 57.5 42.7917C57.5 42.7917 57.5 42.7917 57.5 42.7917H55.9334C55.602 42.7917 55.3334 42.523 55.3334 42.1917V38.8194" stroke="#CDCECF" stroke-width="1.5"/>
<path d="M69.9583 35.2083L71.5833 35.2083M73.2083 35.2083L71.5833 35.2083M71.5833 35.2083L69.4166 42.7917M69.4166 42.7917L67.7916 42.7917M69.4166 42.7917L71.0416 42.7917" stroke="#CDCECF" stroke-width="1.5" stroke-linecap="round" stroke-linejoin="round"/>
<path d="M85.6667 35.2083V38.4583C85.6667 39.6549 84.6967 40.625 83.5 40.625V40.625C82.3034 40.625 81.3334 39.6549 81.3334 38.4583V35.2083" stroke="#CDCECF" stroke-width="1.5" stroke-linecap="round" stroke-linejoin="round"/>
<path d="M80.25 42.7917L86.75 42.7917" stroke="#CDCECF" stroke-width="1.5" stroke-linecap="round" stroke-linejoin="round"/>
</g>
<defs>
<filter id="filter0_d_1314_36302" x="0" y="0" width="120" height="80" filterUnits="userSpaceOnUse" color-interpolation-filters="sRGB">
<feFlood flood-opacity="0" result="BackgroundImageFix"/>
<feColorMatrix in="SourceAlpha" type="matrix" values="0 0 0 0 0 0 0 0 0 0 0 0 0 0 0 0 0 0 127 0" result="hardAlpha"/>
<feOffset dy="1"/>
<feGaussianBlur stdDeviation="1"/>
<feColorMatrix type="matrix" values="0 0 0 0 0.027451 0 0 0 0 0.0313726 0 0 0 0 0.0627451 0 0 0 0.1 0"/>
<feBlend mode="normal" in2="BackgroundImageFix" result="effect1_dropShadow_1314_36302"/>
<feBlend mode="normal" in="SourceGraphic" in2="effect1_dropShadow_1314_36302" result="shape"/>
</filter>
</defs>
</svg>
