<svg width="120" height="80" viewBox="0 0 120 80" fill="none" xmlns="http://www.w3.org/2000/svg">
<g filter="url(#filter0_d_1409_24006)">
<rect x="2" y="1" width="116" height="76" rx="6" fill="#FAFAFA"/>
<rect x="2.5" y="1.5" width="115" height="75" rx="5.5" stroke="#EDEDED"/>
<rect x="25.25" y="28.25" width="69.5" height="21.5" rx="4.75" fill="white"/>
<rect x="25.25" y="28.25" width="69.5" height="21.5" rx="4.75" stroke="#E6E6E7" stroke-width="1.5"/>
<rect opacity="0.48" x="66" y="37" width="20" height="4" rx="2" fill="#E6E6E7"/>
<rect x="48" y="37" width="14" height="4" rx="2" fill="#E6E6E7"/>
<path fill-rule="evenodd" clip-rule="evenodd" d="M39 37.5V35H39.5C39.775 35 40 34.775 40 34.5C40 34.225 39.775 34 39.5 34H34.5C34.225 34 34 34.225 34 34.5C34 34.775 34.225 35 34.5 35H35V37.5C35 38.33 34.33 39 33.5 39V40H36.485V43.5L36.985 44L37.485 43.5V40H40.5V39C39.67 39 39 38.33 39 37.5Z" fill="#D7D8D9"/>
</g>
<defs>
<filter id="filter0_d_1409_24006" x="0" y="0" width="120" height="80" filterUnits="userSpaceOnUse" color-interpolation-filters="sRGB">
<feFlood flood-opacity="0" result="BackgroundImageFix"/>
<feColorMatrix in="SourceAlpha" type="matrix" values="0 0 0 0 0 0 0 0 0 0 0 0 0 0 0 0 0 0 127 0" result="hardAlpha"/>
<feOffset dy="1"/>
<feGaussianBlur stdDeviation="1"/>
<feColorMatrix type="matrix" values="0 0 0 0 0.027451 0 0 0 0 0.0313726 0 0 0 0 0.0627451 0 0 0 0.1 0"/>
<feBlend mode="normal" in2="BackgroundImageFix" result="effect1_dropShadow_1409_24006"/>
<feBlend mode="normal" in="SourceGraphic" in2="effect1_dropShadow_1409_24006" result="shape"/>
</filter>
</defs>
</svg>
