<svg width="120" height="80" viewBox="0 0 120 80" fill="none" xmlns="http://www.w3.org/2000/svg">
<g filter="url(#filter0_d_3714_70853)">
<rect x="2" y="1" width="116" height="76" rx="6" fill="#FAFAFA"/>
<rect x="2.5" y="1.5" width="115" height="75" rx="5.5" stroke="#EDEDED"/>
<g clip-path="url(#clip0_3714_70853)">
<rect x="26" y="17" width="68" height="44" rx="4" fill="white"/>
<rect x="26" y="17" width="68" height="9" fill="#FAFAFA"/>
<rect opacity="0.64" x="29" y="20" width="6.8" height="3" rx="1.5" fill="#E6E6E7"/>
<rect opacity="0.64" x="42.7998" y="20" width="6.8" height="3" rx="1.5" fill="#E6E6E7"/>
<rect opacity="0.64" x="56.6001" y="20" width="6.8" height="3" rx="1.5" fill="#E6E6E7"/>
<rect opacity="0.64" x="70.3999" y="20" width="6.8" height="3" rx="1.5" fill="#E6E6E7"/>
<rect opacity="0.64" x="84.2002" y="20" width="6.8" height="3" rx="1.5" fill="#E6E6E7"/>
<rect x="38.7998" y="26" width="1" height="35" fill="#EDEDED"/>
<rect x="52.5996" y="26" width="1" height="35" fill="#EDEDED"/>
<rect x="66.3999" y="26" width="1" height="35" fill="#EDEDED"/>
<rect x="80.1997" y="26" width="1" height="35" fill="#EDEDED"/>
<rect x="26" y="34" width="68" height="1" fill="#EDEDED"/>
<rect x="26" y="25" width="68" height="1" fill="#EDEDED"/>
<rect x="26" y="43" width="68" height="1" fill="#EDEDED"/>
<rect x="26" y="52" width="68" height="1" fill="#EDEDED"/>
<rect x="55.1001" y="36.5" width="9.8" height="5" rx="2" fill="#4E5CFE"/>
</g>
<rect x="25.25" y="16.25" width="69.5" height="45.5" rx="4.75" stroke="#E6E6E7" stroke-width="1.5"/>
</g>
<defs>
<filter id="filter0_d_3714_70853" x="0" y="0" width="120" height="80" filterUnits="userSpaceOnUse" color-interpolation-filters="sRGB">
<feFlood flood-opacity="0" result="BackgroundImageFix"/>
<feColorMatrix in="SourceAlpha" type="matrix" values="0 0 0 0 0 0 0 0 0 0 0 0 0 0 0 0 0 0 127 0" result="hardAlpha"/>
<feOffset dy="1"/>
<feGaussianBlur stdDeviation="1"/>
<feColorMatrix type="matrix" values="0 0 0 0 0.027451 0 0 0 0 0.0313726 0 0 0 0 0.0627451 0 0 0 0.1 0"/>
<feBlend mode="normal" in2="BackgroundImageFix" result="effect1_dropShadow_3714_70853"/>
<feBlend mode="normal" in="SourceGraphic" in2="effect1_dropShadow_3714_70853" result="shape"/>
</filter>
<clipPath id="clip0_3714_70853">
<rect x="26" y="17" width="68" height="44" rx="4" fill="white"/>
</clipPath>
</defs>
</svg>
