<svg xmlns="http://www.w3.org/2000/svg" width="184.521" height="28.327" viewBox="0 0 184.521 28.327">
  <g id="Group_163" data-name="Group 163" transform="translate(-451.976 -572.392)">
    <path id="Path_212" data-name="Path 212" d="M18.29-11.284a5.2,5.2,0,0,0,2.79-4.774c0-3.441-2.79-5.642-8-5.642H2.914V0H13.7C19.282,0,22.2-2.17,22.2-5.89A5.344,5.344,0,0,0,18.29-11.284Zm-5.642-7.254c2.79,0,4.371.992,4.371,3.007,0,1.984-1.581,2.976-4.371,2.976h-5.7v-5.983Zm.806,15.376H6.944V-9.424h6.51c3.038,0,4.681.961,4.681,3.131S16.492-3.162,13.454-3.162Zm19-13.578a11.639,11.639,0,0,0-7.006,2.046l1.519,2.821a8.2,8.2,0,0,1,5.022-1.643c2.759,0,4.123,1.333,4.123,3.6v.248H31.837c-5.022,0-6.882,2.17-6.882,4.929,0,2.883,2.387,4.96,6.169,4.96,2.48,0,4.278-.806,5.208-2.232V0H39.99V-9.7C39.99-14.477,37.231-16.74,32.457-16.74ZM31.93-2.6c-1.984,0-3.162-.9-3.162-2.294,0-1.209.713-2.2,3.348-2.2h4v1.922A4.22,4.22,0,0,1,31.93-2.6ZM50.065.217c4.65,0,7.5-2.015,7.5-5.115,0-6.479-10.23-3.5-10.23-6.851,0-1.085,1.116-1.86,3.472-1.86a9.061,9.061,0,0,1,4.743,1.24l1.488-2.945a13.175,13.175,0,0,0-6.2-1.426c-4.464,0-7.285,2.046-7.285,5.177,0,6.6,10.23,3.627,10.23,6.789,0,1.147-1.023,1.829-3.472,1.829a11.138,11.138,0,0,1-5.766-1.643L43.059-1.643A13.153,13.153,0,0,0,50.065.217Zm26.412-8.4c0-5.177-3.534-8.556-8.37-8.556a8.233,8.233,0,0,0-8.556,8.463c0,4.929,3.6,8.494,9.145,8.494a8.391,8.391,0,0,0,6.665-2.7L73.284-4.867a5.932,5.932,0,0,1-4.5,1.8c-2.883,0-4.9-1.55-5.363-3.968H76.415C76.446-7.409,76.477-7.874,76.477-8.184Zm-8.37-5.456a4.506,4.506,0,0,1,4.681,4.03H63.4A4.575,4.575,0,0,1,68.107-13.64Zm15.779-.5v-2.418H80.2V0h3.875V-8.029c0-3.379,1.86-5.115,4.805-5.115a4.919,4.919,0,0,1,.9.093V-16.74C87.017-16.74,85-15.872,83.886-14.136ZM100.347.217c5.146,0,8.835-3.534,8.835-8.494s-3.689-8.463-8.835-8.463c-5.084,0-8.8,3.5-8.8,8.463S95.263.217,100.347.217Zm0-3.317a4.814,4.814,0,0,1-4.9-5.177,4.814,4.814,0,0,1,4.9-5.177,4.821,4.821,0,0,1,4.929,5.177A4.821,4.821,0,0,1,100.347-3.1Zm34.472-13.454-4.5,12.276L125.86-16.554H122.6L118.048-4.34l-4.371-12.214h-3.658L116.095,0h3.72l4.34-11.408L128.433,0h3.72l6.107-16.554Z" transform="translate(498.236 598.318)" fill="#062e47"/>
    <g id="Group_162" data-name="Group 162" transform="translate(451.976 572.392)">
      <g id="Group_161" data-name="Group 161">
        <rect id="Rectangle_257" data-name="Rectangle 257" width="21.863" height="3.992" transform="translate(6.654 24.335)" fill="#566270"/>
        <rect id="Rectangle_258" data-name="Rectangle 258" width="23.955" height="3.992" transform="translate(0 18.251)" fill="#4570a9"/>
        <rect id="Rectangle_259" data-name="Rectangle 259" width="6.464" height="3.992" transform="translate(25.222 18.251)" fill="#4570a9"/>
        <rect id="Rectangle_260" data-name="Rectangle 260" width="11.597" height="3.992" transform="translate(4.563 12.167)" fill="#00a2ce"/>
        <rect id="Rectangle_261" data-name="Rectangle 261" width="5.228" height="3.992" transform="translate(17.728 12.167)" fill="#00a2ce"/>
        <rect id="Rectangle_262" data-name="Rectangle 262" width="19.392" height="3.992" transform="translate(8.365 6.084)" fill="#6acaff"/>
        <rect id="Rectangle_263" data-name="Rectangle 263" width="16.35" height="3.992" transform="translate(7.319)" fill="#9addff"/>
        <rect id="Rectangle_264" data-name="Rectangle 264" width="5.228" height="3.992" transform="translate(0.285)" fill="#9addff"/>
      </g>
    </g>
  </g>
</svg>
