<svg viewBox="0 0 134 80" fill="none" xmlns="http://www.w3.org/2000/svg">
<path d="M0 4C0 1.79086 1.79086 0 4 0H130C132.209 0 134 1.79086 134 4V80H0V4Z" fill="white"/>
<rect opacity="0.8" x="6.5" y="16.5" width="121" height="73" rx="3.5" fill="white" stroke="#EDEDED"/>
<rect opacity="0.8" x="54" y="16" width="1" height="120" fill="#EDEDED"/>
<rect opacity="0.8" x="112" y="16" width="1" height="120" fill="#EDEDED"/>
<rect x="10" y="20" width="24" height="4" rx="2" fill="#EDEDED"/>
<rect x="65" y="20" width="24" height="4" rx="2" fill="#F5F5F5"/>
<rect x="118" y="20" width="4" height="4" rx="2" fill="#EDEDED"/>
<rect x="59" y="20" width="4" height="4" rx="2" fill="#EDEDED"/>
<rect opacity="0.8" x="7" y="28" width="121" height="1" fill="#EDEDED"/>
<rect x="10" y="33" width="32" height="4" rx="2" fill="#FF5A44"/>
<rect opacity="0.24" x="65" y="33" width="32" height="4" rx="2" fill="#FF5A44"/>
<rect x="118" y="33" width="4" height="4" rx="2" fill="#FF5A44"/>
<rect x="119" y="34" width="2" height="2" rx="1" fill="white"/>
<rect opacity="0.4" x="59" y="33" width="4" height="4" rx="2" fill="#FF5A44"/>
<rect opacity="0.8" x="7" y="41" width="121" height="1" fill="#EDEDED"/>
<rect x="10" y="46" width="28" height="4" rx="2" fill="#EDEDED"/>
<rect x="65" y="46" width="24" height="4" rx="2" fill="#F5F5F5"/>
<rect x="118" y="46" width="4" height="4" rx="2" fill="#EDEDED"/>
<rect x="59" y="46" width="4" height="4" rx="2" fill="#EDEDED"/>
<rect opacity="0.8" x="7" y="54" width="121" height="1" fill="#EDEDED"/>
<rect x="10" y="59" width="24" height="4" rx="2" fill="#FF5A44"/>
<rect opacity="0.24" x="65" y="59" width="28" height="4" rx="2" fill="#FF5A44"/>
<rect x="118" y="59" width="4" height="4" rx="2" fill="#FF5A44"/>
<rect x="119" y="60" width="2" height="2" rx="1" fill="white"/>
<rect opacity="0.4" x="59" y="59" width="4" height="4" rx="2" fill="#FF5A44"/>
<rect opacity="0.8" x="7" y="67" width="121" height="1" fill="#EDEDED"/>
<rect x="10" y="72" width="32" height="4" rx="2" fill="#EDEDED"/>
<rect x="65" y="72" width="24" height="4" rx="2" fill="#F5F5F5"/>
<rect x="118" y="72" width="4" height="4" rx="2" fill="#EDEDED"/>
<rect x="59" y="72" width="4" height="4" rx="2" fill="#EDEDED"/>
<path opacity="0.24" d="M0 4C0 1.79086 1.79086 0 4 0H130C132.209 0 134 1.79086 134 4V10H0V4Z" fill="#FF5A44"/>
<rect opacity="0.64" x="47" y="3" width="40" height="4" rx="2" fill="white"/>
</svg>
