<svg viewBox="0 0 134 80" fill="none" xmlns="http://www.w3.org/2000/svg">
<path d="M0 4C0 1.79086 1.79086 0 4 0H130C132.209 0 134 1.79086 134 4V80H0V4Z" fill="white"/>
<rect opacity="0.16" x="4" y="14" width="126" height="16" rx="4" fill="#AF50EA"/>
<path opacity="0.24" d="M0 4C0 1.79086 1.79086 0 4 0H130C132.209 0 134 1.79086 134 4V10H0V4Z" fill="#AF50EA"/>
<rect opacity="0.64" x="47" y="3" width="40" height="4" rx="2" fill="white"/>
<rect x="36" y="48" width="16" height="4" rx="2" fill="#F5F5F5"/>
<rect x="36.5" y="56.5" width="61" height="15" rx="1.5" fill="white" stroke="#EDEDED"/>
<rect x="60" y="34" width="24" height="4" rx="2" fill="#EDEDED"/>
<rect x="36" y="26" width="16" height="16" rx="4" fill="#AF50EA"/>
<rect x="40" y="60" width="54" height="2" rx="1" fill="#EDEDED"/>
<rect x="40" y="64" width="22" height="2" rx="1" fill="#F5F5F5"/>
</svg>
