<svg viewBox="0 0 134 80" fill="none" xmlns="http://www.w3.org/2000/svg">
<path d="M0 4C0 1.79086 1.79086 0 4 0H130C132.209 0 134 1.79086 134 4V80H0V4Z" fill="white"/>
<rect x="6.5" y="16.5" width="25" height="34" rx="1.5" fill="white" stroke="#EDEDED"/>
<rect opacity="0.16" x="9" y="45" width="11" height="2" rx="1" fill="#9C9C9F"/>
<rect opacity="0.24" x="9" y="42" width="20" height="2" rx="1" fill="#9C9C9F"/>
<rect x="9" y="19" width="20" height="20" rx="2" fill="#AF50EA"/>
<rect x="38.5" y="16.5" width="25" height="34" rx="1.5" fill="white" stroke="#EDEDED"/>
<rect opacity="0.16" x="41" y="45" width="7" height="2" rx="1" fill="#9C9C9F"/>
<rect opacity="0.24" x="41" y="42" width="16" height="2" rx="1" fill="#9C9C9F"/>
<rect opacity="0.24" x="41" y="19" width="20" height="20" rx="2" fill="#AF50EA"/>
<rect x="70.5" y="16.5" width="25" height="34" rx="1.5" fill="white" stroke="#EDEDED"/>
<rect opacity="0.16" x="73" y="45" width="7" height="2" rx="1" fill="#9C9C9F"/>
<rect opacity="0.24" x="73" y="42" width="20" height="2" rx="1" fill="#9C9C9F"/>
<rect opacity="0.24" x="73" y="19" width="20" height="20" rx="2" fill="#AF50EA"/>
<rect x="102.5" y="16.5" width="25" height="34" rx="1.5" fill="white" stroke="#EDEDED"/>
<rect opacity="0.16" x="105" y="45" width="11" height="2" rx="1" fill="#9C9C9F"/>
<rect opacity="0.24" x="105" y="42" width="16" height="2" rx="1" fill="#9C9C9F"/>
<rect opacity="0.24" x="105" y="19" width="20" height="20" rx="2" fill="#AF50EA"/>
<rect x="6.5" y="57.5" width="25" height="34" rx="1.5" fill="white" stroke="#EDEDED"/>
<rect opacity="0.24" x="9" y="60" width="20" height="20" rx="2" fill="#AF50EA"/>
<rect x="38.5" y="57.5" width="25" height="34" rx="1.5" fill="white" stroke="#EDEDED"/>
<rect opacity="0.24" x="41" y="60" width="20" height="20" rx="2" fill="#AF50EA"/>
<rect x="70.5" y="57.5" width="25" height="34" rx="1.5" fill="white" stroke="#EDEDED"/>
<rect opacity="0.24" x="73" y="60" width="20" height="20" rx="2" fill="#AF50EA"/>
<rect x="102.5" y="57.5" width="25" height="34" rx="1.5" fill="white" stroke="#EDEDED"/>
<rect opacity="0.24" x="105" y="60" width="20" height="20" rx="2" fill="#AF50EA"/>
<path opacity="0.24" d="M0 4C0 1.79086 1.79086 0 4 0H130C132.209 0 134 1.79086 134 4V10H0V4Z" fill="#AF50EA"/>
<rect opacity="0.64" x="47" y="3" width="40" height="4" rx="2" fill="white"/>
</svg>
