<svg viewBox="0 0 134 80" fill="none" xmlns="http://www.w3.org/2000/svg">
<path d="M0 4C0 1.79086 1.79086 0 4 0H130C132.209 0 134 1.79086 134 4V80H0V4Z" fill="white"/>
<rect opacity="0.8" x="6.5" y="16.5" width="121" height="73" rx="3.5" fill="white" stroke="#EDEDED"/>
<rect opacity="0.8" x="7" y="40" width="121" height="1" fill="#EDEDED"/>
<rect opacity="0.8" x="7" y="65" width="121" height="1" fill="#EDEDED"/>
<rect opacity="0.8" x="30" y="16" width="1" height="120" fill="#EDEDED"/>
<rect opacity="0.8" x="55" y="16" width="1" height="120" fill="#EDEDED"/>
<rect opacity="0.8" x="79" y="16" width="1" height="120" fill="#EDEDED"/>
<rect opacity="0.8" x="103" y="16" width="1" height="120" fill="#EDEDED"/>
<path opacity="0.24" d="M0 4C0 1.79086 1.79086 0 4 0H130C132.209 0 134 1.79086 134 4V10H0V4Z" fill="#AF50EA"/>
<rect opacity="0.64" x="47" y="3" width="40" height="4" rx="2" fill="white"/>
<rect x="10" y="20" width="41" height="8" rx="4" fill="#AF50EA"/>
<rect x="84" y="45" width="15" height="8" rx="4" fill="#AF50EA"/>
<rect x="35" y="45" width="16" height="16" rx="2" fill="#AF50EA"/>
<circle cx="14" cy="24" r="2" fill="white"/>
<circle opacity="0.24" cx="14" cy="49" r="2" fill="#6A6B70"/>
<circle opacity="0.24" cx="14" cy="74" r="2" fill="#6A6B70"/>
<circle cx="39" cy="49" r="2" fill="white"/>
<circle opacity="0.24" cx="39" cy="74" r="2" fill="#6A6B70"/>
<circle opacity="0.24" cx="64" cy="24" r="2" fill="#6A6B70"/>
<circle opacity="0.24" cx="64" cy="49" r="2" fill="#6A6B70"/>
<circle opacity="0.24" cx="64" cy="74" r="2" fill="#6A6B70"/>
<circle opacity="0.24" cx="88" cy="24" r="2" fill="#6A6B70"/>
<circle cx="88" cy="49" r="2" fill="white"/>
<circle opacity="0.24" cx="88" cy="74" r="2" fill="#6A6B70"/>
<circle opacity="0.24" cx="112" cy="24" r="2" fill="#6A6B70"/>
<circle opacity="0.24" cx="112" cy="74" r="2" fill="#6A6B70"/>
<circle opacity="0.24" cx="112" cy="49" r="2" fill="#6A6B70"/>
</svg>
