<svg viewBox="0 0 134 80" fill="none" xmlns="http://www.w3.org/2000/svg">
<path d="M0 4C0 1.79086 1.79086 0 4 0H130C132.209 0 134 1.79086 134 4V80H0V4Z" fill="white"/>
<rect x="6" y="16" width="26" height="50" rx="4" fill="#F7F7F7"/>
<rect x="10.5" y="28.5" width="17" height="9" rx="1.5" fill="white" stroke="#EDEDED"/>
<rect opacity="0.24" x="14" y="32" width="10" height="2" rx="1" fill="#9C9C9F"/>
<rect x="10.5" y="40.5" width="17" height="9" rx="1.5" fill="white" stroke="#EDEDED"/>
<rect opacity="0.24" x="14" y="44" width="10" height="2" rx="1" fill="#9C9C9F"/>
<rect x="10.5" y="52.5" width="17" height="9" rx="1.5" fill="white" stroke="#EDEDED"/>
<rect opacity="0.24" x="14" y="56" width="8" height="2" rx="1" fill="#9C9C9F"/>
<rect opacity="0.2" x="10" y="20" width="14" height="4" rx="2" fill="#9C9C9F"/>
<rect x="38" y="16" width="26" height="54" rx="4" fill="#F7F7F7"/>
<rect x="42.5" y="28.5" width="17" height="17" rx="1.5" fill="white" stroke="#EDEDED"/>
<rect opacity="0.24" x="46" y="40" width="8" height="2" rx="1" fill="#9C9C9F"/>
<rect x="46" y="32" width="10" height="6" rx="2" fill="#AF50EA"/>
<rect x="42.5" y="48.5" width="17" height="17" rx="1.5" fill="white" stroke="#EDEDED"/>
<rect opacity="0.24" x="46" y="60" width="8" height="2" rx="1" fill="#9C9C9F"/>
<rect x="46" y="52" width="10" height="6" rx="2" fill="#AF50EA"/>
<rect opacity="0.2" x="42" y="20" width="14" height="4" rx="2" fill="#9C9C9F"/>
<rect x="70" y="16" width="26" height="50" rx="4" fill="#F7F7F7"/>
<rect x="74.5" y="28.5" width="17" height="9" rx="1.5" fill="white" stroke="#EDEDED"/>
<rect opacity="0.24" x="78" y="32" width="10" height="2" rx="1" fill="#9C9C9F"/>
<rect x="74.5" y="40.5" width="17" height="9" rx="1.5" fill="white" stroke="#EDEDED"/>
<rect opacity="0.24" x="78" y="44" width="8" height="2" rx="1" fill="#9C9C9F"/>
<rect x="74.5" y="52.5" width="17" height="9" rx="1.5" fill="white" stroke="#EDEDED"/>
<rect opacity="0.24" x="78" y="56" width="10" height="2" rx="1" fill="#9C9C9F"/>
<rect opacity="0.2" x="74" y="20" width="14" height="4" rx="2" fill="#9C9C9F"/>
<rect x="102" y="16" width="26" height="58" rx="4" fill="#F7F7F7"/>
<rect x="106.5" y="28.5" width="17" height="17" rx="1.5" fill="white" stroke="#EDEDED"/>
<rect opacity="0.24" x="110" y="40" width="8" height="2" rx="1" fill="#9C9C9F"/>
<rect x="110" y="32" width="10" height="6" rx="2" fill="#AF50EA"/>
<rect x="106.5" y="48.5" width="17" height="9" rx="1.5" fill="white" stroke="#EDEDED"/>
<rect opacity="0.24" x="110" y="52" width="10" height="2" rx="1" fill="#9C9C9F"/>
<rect x="106.5" y="60.5" width="17" height="9" rx="1.5" fill="white" stroke="#EDEDED"/>
<rect opacity="0.24" x="110" y="64" width="8" height="2" rx="1" fill="#9C9C9F"/>
<rect opacity="0.2" x="106" y="20" width="14" height="4" rx="2" fill="#9C9C9F"/>
<path opacity="0.24" d="M0 4C0 1.79086 1.79086 0 4 0H130C132.209 0 134 1.79086 134 4V10H0V4Z" fill="#AF50EA"/>
<rect opacity="0.64" x="47" y="3" width="40" height="4" rx="2" fill="white"/>
</svg>
