<svg xmlns="http://www.w3.org/2000/svg" width="44" height="41" viewBox="0 0 44 41">
  <g id="Group_988" data-name="Group 988" transform="translate(-1463 -854.25)">
    <line id="Line_682" data-name="Line 682" x2="44" transform="translate(1463 874.75)" fill="none" stroke="#d9dbde" stroke-width="1"/>
    <line id="Line_684" data-name="Line 684" x2="44" transform="translate(1463 894.75)" fill="none" stroke="#d9dbde" stroke-width="1"/>
    <path id="Path_793" data-name="Path 793" d="M4.189,0H3.24V-6.105q0-.762.047-1.441-.123.123-.275.258T1.617-6.146L1.1-6.814,3.369-8.566h.82Z" transform="translate(1469.84 870.25)" fill="#9fa4ab"/>
    <rect id="Rectangle_1584" data-name="Rectangle 1584" width="44" height="20" transform="translate(1463 875)" fill="rgba(217,219,222,0.38)"/>
    <path id="Path_794" data-name="Path 794" d="M6.217,0H.586V-.838L2.842-3.105A16.612,16.612,0,0,0,4.2-4.594a3.8,3.8,0,0,0,.492-.867,2.484,2.484,0,0,0,.164-.908,1.44,1.44,0,0,0-.416-1.087,1.593,1.593,0,0,0-1.154-.4,2.9,2.9,0,0,0-1.011.176,4.029,4.029,0,0,0-1.063.639L.7-7.705a3.949,3.949,0,0,1,2.578-.984,2.724,2.724,0,0,1,1.893.618A2.126,2.126,0,0,1,5.854-6.41,3.208,3.208,0,0,1,5.4-4.8,10.23,10.23,0,0,1,3.686-2.783L1.811-.949V-.9H6.217Z" transform="translate(1469.84 889.25)" fill="#9fa4ab"/>
    <line id="Line_685" data-name="Line 685" x2="44" transform="translate(1463 854.75)" fill="none" stroke="#d9dbde" stroke-width="1"/>
  </g>
</svg>
