<svg xmlns="http://www.w3.org/2000/svg" width="43.16" height="43" viewBox="0 0 43.16 43">
  <g id="Group_987" data-name="Group 987" transform="translate(-1019.5 -766)">
    <line id="Line_682" data-name="Line 682" x2="43.16" transform="translate(1019.5 787.5)" fill="none" stroke="#d9dbde" stroke-width="1"/>
    <path id="Path_791" data-name="Path 791" d="M4.189,0H3.24V-6.105q0-.762.047-1.441-.123.123-.275.258T1.617-6.146L1.1-6.814,3.369-8.566h.82Z" transform="translate(1026 779)" fill="#9fa4ab"/>
    <path id="Path_792" data-name="Path 792" d="M6.217,0H.586V-.838L2.842-3.105A16.612,16.612,0,0,0,4.2-4.594a3.8,3.8,0,0,0,.492-.867,2.484,2.484,0,0,0,.164-.908,1.44,1.44,0,0,0-.416-1.087,1.593,1.593,0,0,0-1.154-.4,2.9,2.9,0,0,0-1.011.176,4.029,4.029,0,0,0-1.063.639L.7-7.705a3.949,3.949,0,0,1,2.578-.984,2.724,2.724,0,0,1,1.893.618A2.126,2.126,0,0,1,5.854-6.41,3.208,3.208,0,0,1,5.4-4.8,10.23,10.23,0,0,1,3.686-2.783L1.811-.949V-.9H6.217Z" transform="translate(1026 806)" fill="#9fa4ab"/>
    <rect id="Rectangle_1581" data-name="Rectangle 1581" width="6" height="16" rx="3" transform="translate(1043 793)" fill="#b4bac2"/>
    <rect id="Rectangle_1582" data-name="Rectangle 1582" width="6" height="16" rx="3" transform="translate(1043 766)" fill="#d9dbde"/>
  </g>
</svg>
