<svg width="16" height="16" viewBox="0 0 16 16" fill="none" xmlns="http://www.w3.org/2000/svg">
<path d="M5.825 7.675C5.60826 7.14327 5.49784 6.57421 5.5 6C5.5 5.10999 5.76392 4.23996 6.25839 3.49994C6.75285 2.75991 7.45566 2.18314 8.27792 1.84254C9.10019 1.50195 10.005 1.41283 10.8779 1.58647C11.7508 1.7601 12.5526 2.18869 13.182 2.81802C13.8113 3.44736 14.2399 4.24918 14.4135 5.1221C14.5872 5.99501 14.4981 6.89981 14.1575 7.72208C13.8169 8.54434 13.2401 9.24715 12.5001 9.74162C11.76 10.2361 10.89 10.5 10 10.5C9.42579 10.5022 8.85673 10.3917 8.325 10.175V10.175L7.5 11H6V12.5H4.5V14H2V11.5L5.825 7.675Z" stroke="#828A95" stroke-linecap="round" stroke-linejoin="round"/>
<path d="M11.25 5.25C11.5261 5.25 11.75 5.02614 11.75 4.75C11.75 4.47386 11.5261 4.25 11.25 4.25C10.9739 4.25 10.75 4.47386 10.75 4.75C10.75 5.02614 10.9739 5.25 11.25 5.25Z" fill="#828A95"/>
</svg>
