<svg width="72" height="40" viewBox="0 0 72 40" fill="none" xmlns="http://www.w3.org/2000/svg">
<rect x="1.25" y="1.25" width="69.5" height="37.5" rx="4.75" fill="white"/>
<rect x="1.25" y="1.25" width="69.5" height="37.5" rx="4.75" stroke="#E6E6E7" stroke-width="1.5"/>
<rect opacity="0.48" x="12" y="28" width="14" height="4" rx="2" fill="#E6E6E7"/>
<rect opacity="0.48" x="47" y="28" width="13" height="4" rx="2" fill="#E6E6E7"/>
<path d="M14.2539 18.6816V16.4551H12.0332V14.9434H14.2539V12.7168H15.7656V14.9434H17.998V16.4551H15.7656V18.6816H14.2539ZM19.1816 18.4824V17.0527L22.7734 11.375H25.0586V17.0234H26.1309V18.4824H25.0586V20H23.3184V18.4824H19.1816ZM23.3477 17.0234V13.3672H23.2832L21.0156 16.9531V17.0234H23.3477Z" fill="#0D9439"/>
<path d="M51.9414 14.9727V16.3906H48.0098V14.9727H51.9414ZM52.832 20V18.6816L55.8965 15.8398C56.6699 15.0898 57.0918 14.6152 57.1035 13.9297C57.0918 13.1738 56.5293 12.6992 55.7793 12.7051C54.9824 12.6992 54.4668 13.2031 54.4727 14.0352H52.7441C52.7324 12.3359 53.9746 11.2578 55.791 11.2578C57.6309 11.2578 58.8555 12.3125 58.8672 13.8125C58.8555 14.791 58.375 15.5996 56.6113 17.2168L55.3516 18.4473V18.5059H58.9844V20H52.832Z" fill="#B23F30"/>
<rect x="36" y="12" width="1" height="16" fill="#EDEDED"/>
</svg>
